<?xml version="1.0" encoding="UTF-8" standalone="no"?>
<!-- Created with Inkscape (http://www.inkscape.org/) -->

<svg
   xmlns:dc="http://purl.org/dc/elements/1.1/"
   xmlns:cc="http://creativecommons.org/ns#"
   xmlns:rdf="http://www.w3.org/1999/02/22-rdf-syntax-ns#"
   xmlns:svg="http://www.w3.org/2000/svg"
   xmlns="http://www.w3.org/2000/svg"
   xmlns:sodipodi="http://sodipodi.sourceforge.net/DTD/sodipodi-0.dtd"
   xmlns:inkscape="http://www.inkscape.org/namespaces/inkscape"
   width="300"
   height="300"
   viewBox="0 0 300 300"
   version="1.1"
   id="svg8"
   inkscape:version="0.92.3 (2405546, 2018-03-11)"
   sodipodi:docname="BooomExploded.svg">
  <defs
     id="defs2" />
  <sodipodi:namedview
     id="base"
     pagecolor="#ffffff"
     bordercolor="#666666"
     borderopacity="1.0"
     inkscape:pageopacity="0.0"
     inkscape:pageshadow="2"
     inkscape:zoom="2"
     inkscape:cx="300.34328"
     inkscape:cy="252.70973"
     inkscape:document-units="px"
     inkscape:current-layer="layer1"
     showgrid="true"
     units="px"
     inkscape:window-width="1366"
     inkscape:window-height="705"
     inkscape:window-x="-8"
     inkscape:window-y="-8"
     inkscape:window-maximized="1"
     inkscape:pagecheckerboard="false"
     inkscape:snap-bbox="true"
     inkscape:snap-bbox-midpoints="true"
     inkscape:bbox-paths="true"
     inkscape:bbox-nodes="true"
     inkscape:snap-bbox-edge-midpoints="true"
     inkscape:snap-object-midpoints="true">
    <inkscape:grid
       type="xygrid"
       id="grid815"
       empspacing="4"
       spacingy="1"
       spacingx="1" />
    <inkscape:grid
       type="xygrid"
       id="grid819"
       color="#ff3f3f"
       opacity="0.1254902"
       empcolor="#ff413f"
       empopacity="0.25098039"
       empspacing="64" />
  </sodipodi:namedview>
  <metadata
     id="metadata5">
    <rdf:RDF>
      <cc:Work
         rdf:about="">
        <dc:format>image/svg+xml</dc:format>
        <dc:type
           rdf:resource="http://purl.org/dc/dcmitype/StillImage" />
        <dc:title />
        <cc:license
           rdf:resource="http://creativecommons.org/licenses/by-sa/4.0/" />
      </cc:Work>
      <cc:License
         rdf:about="http://creativecommons.org/licenses/by-sa/4.0/">
        <cc:permits
           rdf:resource="http://creativecommons.org/ns#Reproduction" />
        <cc:permits
           rdf:resource="http://creativecommons.org/ns#Distribution" />
        <cc:requires
           rdf:resource="http://creativecommons.org/ns#Notice" />
        <cc:requires
           rdf:resource="http://creativecommons.org/ns#Attribution" />
        <cc:permits
           rdf:resource="http://creativecommons.org/ns#DerivativeWorks" />
        <cc:requires
           rdf:resource="http://creativecommons.org/ns#ShareAlike" />
      </cc:License>
    </rdf:RDF>
  </metadata>
  <g
     inkscape:label="Layer 1"
     inkscape:groupmode="layer"
     id="layer1"
     transform="translate(0,-364.70832)">
    <g
       id="g884"
       inkscape:export-filename="C:\Users\Julia.S\Documents\Darurat_laptop_sebelumnya_rusak\JOELwindows7_FidgetQuest_researchPrototype\images\BoomImage.png"
       inkscape:export-xdpi="96"
       inkscape:export-ydpi="96">
      <g
         id="g868">
        <g
           id="g860">
          <path
             transform="matrix(1.5014968,0,0,1.4996407,-0.06335117,-332.11531)"
             d="m 64.000002,664.70831 -3.013948,-16.09471 -5.007379,15.59005 -0.972979,-16.34555 -6.921847,14.83954 1.083334,-16.33861 -8.727153,13.85498 3.122563,-16.074 -10.394827,12.65193 5.112547,-15.55589 -11.898568,11.24935 7.021903,-14.79245 -13.214662,9.66936 8.820519,-13.79574 -14.322351,7.93688 L 25.167184,628.922 9.9630137,635.00123 21.937279,623.83249 6.0910694,627.95819 19.370728,618.37829 3.1323835,620.4854 17.508008,612.64543 1.1336163,612.70072 16.378494,606.72431 0.12628949,604.72691 16,600.70831 0.12628927,596.68972 16.378494,594.69232 1.1336156,588.71591 17.508009,588.7712 3.1323824,580.93123 19.370729,583.03833 6.0910679,573.45844 21.93728,577.58414 9.9630118,566.4154 l 15.2041732,6.07922 -10.480034,-12.58144 14.322356,7.93687 -8.820523,-13.79573 13.214665,9.66936 -7.021907,-14.79245 11.898573,11.24934 -5.112552,-15.55588 10.394832,12.65192 -3.122568,-16.07399 8.727158,13.85498 -1.083339,-16.33861 6.921852,14.83953 0.972973,-16.34555 5.007385,15.59006 3.013942,-16.09472 3.013948,16.09472 5.007379,-15.59006 0.972979,16.34556 6.921847,-14.83954 -1.083334,16.33861 8.727153,-13.85498 -3.122563,16.07399 10.394827,-12.65193 -5.112547,15.55589 11.898563,-11.24935 -7.021898,14.79246 13.214658,-9.66936 -8.820515,13.79573 14.322355,-7.93687 -10.48003,12.58144 15.20417,-6.07922 -11.97427,11.16874 15.84621,-4.1257 -13.27966,9.5799 16.23835,-2.10712 -14.37563,7.83998 16.37439,-0.0553 -15.24487,5.97641 16.2522,1.9974 -15.87371,4.01859 15.87371,4.01859 -16.2522,1.99741 15.24487,5.97641 -16.37439,-0.0553 14.37563,7.83997 -16.23835,-2.10711 13.27966,9.5799 -15.84621,-4.1257 11.97427,11.16874 -15.20417,-6.07922 10.48003,12.58144 -14.322357,-7.93688 8.820527,13.79573 -13.214669,-9.66935 7.021909,14.79245 -11.898575,-11.24935 5.112552,15.55589 -10.394832,-12.65193 3.122568,16.074 -8.727158,-13.85498 1.083339,16.3386 -6.921852,-14.83953 -0.972973,16.34555 -5.007385,-15.59005 z"
             inkscape:randomized="0"
             inkscape:rounded="0"
             inkscape:flatsided="false"
             sodipodi:arg2="1.6336282"
             sodipodi:arg1="1.5707963"
             sodipodi:r2="48"
             sodipodi:r1="64"
             sodipodi:cy="600.70831"
             sodipodi:cx="64"
             sodipodi:sides="50"
             id="path823"
             style="fill:#ffff00;fill-opacity:1;stroke:none;stroke-width:0.33311388;stroke-miterlimit:4;stroke-dasharray:none;stroke-opacity:1;stroke-linejoin:miter"
             sodipodi:type="star" />
          <path
             d="m 96.000002,648.86649 -3.774883,-20.15818 -6.2716,19.5261 -1.218628,-20.47233 -8.669416,18.58609 1.356846,-20.46364 -10.93051,17.35297 3.91092,-20.13223 -13.019223,15.84619 6.403318,-19.48331 -14.902616,14.08949 8.794732,-18.52713 -16.550986,12.1106 11.047448,-17.27876 -17.938336,9.94071 13.125938,-15.7579 -19.042788,7.61405 14.997425,-13.98853 -19.846925,5.16732 16.632394,-11.99854 -20.338064,2.63909 18.00506,-9.81934 -20.508459,0.0693 19.093775,-7.48529 -20.355423,-2.50168 19.88137,-5.03318 -19.88137,-5.03317 20.355423,-2.50169 -19.093775,-7.48528 20.508459,0.0693 -18.005061,-9.81934 20.338065,2.63909 -16.632396,-11.99855 19.846928,5.16732 -14.997429,-13.98852 19.042793,7.61405 -13.125943,-15.7579 17.938341,9.94071 -11.047453,-17.27876 16.550991,12.11059 -8.794737,-18.52712 14.902621,14.08948 -6.403324,-19.4833 13.01923,15.84618 -3.910927,-20.13222 10.930516,17.35297 -1.356852,-20.46364 8.669422,18.58609 1.218622,-20.47234 6.271606,19.5261 3.774877,-20.15817 3.774883,20.15817 6.271599,-19.5261 1.21863,20.47234 8.66941,-18.58609 -1.35684,20.46364 10.93051,-17.35297 -3.91092,20.13222 13.01922,-15.84618 -6.40332,19.48331 14.90262,-14.08949 -8.79473,18.52712 16.55098,-12.11059 -11.04744,17.27876 17.93833,-9.94071 -13.12594,15.7579 19.04279,-7.61406 -14.99742,13.98853 19.84692,-5.16732 -16.63239,11.99855 20.33806,-2.6391 -18.00506,9.81935 20.50846,-0.0693 -19.09377,7.48528 20.35542,2.50169 -19.88137,5.03317 19.88137,5.03317 -20.35542,2.5017 19.09377,7.48527 -20.50846,-0.0692 18.00506,9.81934 -20.33806,-2.63909 16.63239,11.99854 -19.84692,-5.16732 14.99742,13.98853 -19.04279,-7.61405 13.12594,15.75789 -17.93834,-9.9407 11.04746,17.27875 -16.55099,-12.11059 8.79473,18.52713 -14.90262,-14.08949 6.40333,19.4833 -13.01923,-15.84617 3.91092,20.13222 -10.93051,-17.35297 1.35685,20.46364 -8.66942,-18.58609 -1.21862,20.47233 -6.271611,-19.5261 z"
             inkscape:randomized="0"
             inkscape:rounded="0"
             inkscape:flatsided="false"
             sodipodi:arg2="1.6336282"
             sodipodi:arg1="1.5707963"
             sodipodi:r2="60.118629"
             sodipodi:r1="80.158173"
             sodipodi:cy="568.70831"
             sodipodi:cx="96"
             sodipodi:sides="50"
             id="path827"
             style="fill:#ff8200;fill-opacity:1;stroke:none;stroke-width:0.62623572;stroke-linejoin:miter;stroke-miterlimit:4;stroke-dasharray:none;stroke-opacity:1"
             sodipodi:type="star" />
        </g>
        <g
           id="g856">
          <path
             d="m 96.000002,632.83485 -3.019907,-16.12654 -5.01728,15.62089 -0.974903,-16.37787 -6.935533,14.86887 1.085477,-16.37091 -8.744409,13.88237 3.128737,-16.10578 -10.415379,12.67695 5.122655,-15.58665 -11.922094,11.2716 7.035786,-14.82171 -13.240789,9.68848 8.837959,-13.82301 -14.35067,7.95257 10.500751,-12.60632 -15.234232,6.09124 11.997941,-11.19082 -15.87754,4.13386 13.305915,-9.59884 -16.270451,2.11128 14.404048,-7.85548 -16.406767,0.0554 15.27502,-5.98823 -16.284339,-2.00135 15.905096,-4.02654 -15.905096,-4.02653 16.284339,-2.00136 -15.275021,-5.98822 16.406768,0.0554 -14.404049,-7.85548 16.270453,2.11128 -13.305918,-9.59884 15.877543,4.13385 -11.997943,-11.19081 15.234234,6.09124 -10.500754,-12.60632 14.350673,7.95256 -8.837962,-13.823 13.240793,9.68847 -7.035791,-14.8217 11.922099,11.27159 -5.12266,-15.58664 10.415384,12.67694 -3.128742,-16.10578 8.744414,13.88238 -1.085482,-16.37091 6.935538,14.86887 0.974898,-16.37787 5.017285,15.62088 3.019901,-16.12654 3.019907,16.12654 5.017285,-15.62088 0.9749,16.37787 6.93553,-14.86888 -1.08548,16.37092 8.74441,-13.88238 -3.12873,16.10578 10.41538,-12.67694 -5.12266,15.58664 11.92209,-11.27159 -7.03578,14.8217 13.24079,-9.68847 -8.83796,13.82301 14.35067,-7.95257 -10.50075,12.60632 15.23423,-6.09125 -11.99794,11.19083 15.87754,-4.13386 -13.30592,9.59884 16.27045,-2.11128 -14.40404,7.85548 16.40676,-0.0554 -15.27502,5.98822 16.28434,2.00135 -15.90509,4.02654 15.90509,4.02654 -16.28434,2.00135 15.27502,5.98823 -16.40676,-0.0554 14.40405,7.85547 -16.27046,-2.11127 13.30592,9.59883 -15.87754,-4.13385 11.99794,11.19082 -15.23423,-6.09124 10.50075,12.60632 -14.35067,-7.95257 8.83796,13.82301 -13.24079,-9.68847 7.03579,14.82169 -11.9221,-11.27158 5.12266,15.58664 -10.41539,-12.67694 3.12875,16.10577 -8.74442,-13.88237 1.08548,16.37091 -6.93553,-14.86887 -0.9749,16.37787 -5.017287,-15.62089 z"
             inkscape:randomized="0"
             inkscape:rounded="0"
             inkscape:flatsided="false"
             sodipodi:arg2="1.6336282"
             sodipodi:arg1="1.5707963"
             sodipodi:r2="48.094906"
             sodipodi:r1="64.126541"
             sodipodi:cy="568.70831"
             sodipodi:cx="96"
             sodipodi:sides="50"
             id="path829"
             style="fill:#ff4100;fill-opacity:1;stroke:none;stroke-width:0.66798478;stroke-linejoin:miter;stroke-miterlimit:4;stroke-dasharray:none;stroke-opacity:1"
             sodipodi:type="star" />
          <path
             d="m 96.000001,620.70832 -2.448832,-13.07696 -4.068497,12.66693 -0.790545,-13.28077 -5.624002,12.05713 0.88021,-13.27513 -7.090813,11.25718 2.537083,-13.06013 -8.445799,10.2797 4.153946,-12.63917 -9.667588,9.1401 5.705297,-12.01887 -10.736915,7.85636 7.166674,-11.20904 -11.636914,6.44872 8.515028,-10.22243 -12.353392,4.93937 9.729094,-9.0746 -12.875049,3.35213 10.789726,-7.78367 -13.193659,1.71203 11.680199,-6.36998 -13.304197,0.0449 12.386467,-4.85583 -13.20492,-1.62289 12.897393,-3.26511 -12.897394,-3.2651 13.204921,-1.62289 -12.386468,-4.85584 13.304198,0.0449 -11.6802,-6.36998 13.193661,1.71202 -10.789728,-7.78366 12.875051,3.35213 -9.729096,-9.0746 12.353394,4.93937 -8.51503,-10.22243 11.636916,6.44871 -7.166677,-11.20903 10.736919,7.85635 -5.705302,-12.01887 9.667593,9.1401 -4.15395,-12.63916 8.445803,10.27969 -2.537088,-13.06012 7.090818,11.25717 -0.880214,-13.27512 5.624006,12.05713 0.790541,-13.28077 4.0685,12.66693 2.448829,-13.07696 2.448832,13.07696 4.068499,-12.66693 0.79054,13.28077 5.624,-12.05713 -0.88021,13.27513 7.09082,-11.25718 -2.53709,13.06012 8.4458,-10.27969 -4.15394,12.63916 9.66759,-9.1401 -5.7053,12.01887 10.73691,-7.85635 -7.16667,11.20903 11.63691,-6.44871 -8.51502,10.22243 12.35339,-4.93938 -9.7291,9.07461 12.87505,-3.35213 -10.78972,7.78366 13.19366,-1.71202 -11.6802,6.36998 13.30419,-0.0449 -12.38646,4.85584 13.20492,1.62288 -12.8974,3.26511 12.8974,3.26511 -13.20492,1.62289 12.38646,4.85583 -13.30419,-0.0449 11.6802,6.36998 -13.19366,-1.71203 10.78972,7.78367 -12.87505,-3.35213 9.7291,9.0746 -12.35339,-4.93937 8.51503,10.22242 -11.63692,-6.44871 7.16668,11.20904 -10.73692,-7.85636 5.7053,12.01887 -9.66759,-9.14009 4.15395,12.63916 -8.44581,-10.2797 2.53709,13.06013 -7.09082,-11.25718 0.88022,13.27512 -5.62401,-12.05712 -0.79054,13.28076 -4.0685,-12.66692 z"
             inkscape:randomized="0"
             inkscape:rounded="0"
             inkscape:flatsided="false"
             sodipodi:arg2="1.6336282"
             sodipodi:arg1="1.5707963"
             sodipodi:r2="39.000004"
             sodipodi:r1="52.000008"
             sodipodi:cy="568.70831"
             sodipodi:cx="96"
             sodipodi:sides="50"
             id="path831"
             style="fill:#ff0900;fill-opacity:1;stroke:none;stroke-width:0.59090918;stroke-linejoin:miter;stroke-miterlimit:4;stroke-dasharray:none;stroke-opacity:1"
             sodipodi:type="star" />
        </g>
      </g>
      <g
         id="flowRoot833"
         style="font-style:normal;font-weight:normal;font-size:40px;line-height:1.25;font-family:sans-serif;letter-spacing:0px;word-spacing:0px;fill:#00ff00;fill-opacity:1;stroke:#0000ff;stroke-opacity:1"
         transform="rotate(-30,746.8983,225.86024)"
         aria-label="!BOOM!">
        <path
           style="stroke:#0000ff;stroke-opacity:1"
           inkscape:connector-curvature="0"
           id="path841"
           d="m -53.941406,179.41118 -0.507813,21.07422 h -3.320312 l -0.546875,-21.07422 z m -0.195313,29.08203 h -3.984375 v -4.12109 h 3.984375 z" />
        <path
           style="stroke:#0000ff;stroke-opacity:1"
           inkscape:connector-curvature="0"
           id="path843"
           d="m -22.378906,199.5479 q 0,2.16797 -0.820313,3.82813 -0.820312,1.66015 -2.207031,2.73437 -1.640625,1.28906 -3.613281,1.83594 -1.953125,0.54687 -4.980469,0.54687 h -10.3125 v -29.08203 h 8.613281 q 3.183594,0 4.765625,0.23438 1.582032,0.23437 3.027344,0.97656 1.601563,0.83984 2.324219,2.16797 0.722656,1.30859 0.722656,3.14453 0,2.07031 -1.054687,3.53516 -1.054688,1.44531 -2.8125,2.32421 v 0.15625 q 2.949218,0.60547 4.648437,2.59766 1.699219,1.97266 1.699219,5 z m -6.503906,-13.10547 q 0,-1.05469 -0.351563,-1.77734 -0.351562,-0.72266 -1.132812,-1.17188 -0.917969,-0.52734 -2.226563,-0.64453 -1.308594,-0.13672 -3.242187,-0.13672 h -4.609375 v 8.39844 h 5 q 1.816406,0 2.890625,-0.17578 1.074218,-0.19531 1.992187,-0.78125 0.917969,-0.58594 1.289063,-1.50391 0.390625,-0.9375 0.390625,-2.20703 z m 2.480468,13.26172 q 0,-1.75781 -0.527343,-2.79297 -0.527344,-1.03515 -1.914063,-1.75781 -0.9375,-0.48828 -2.285156,-0.625 -1.328125,-0.15625 -3.242188,-0.15625 h -6.074218 v 10.82031 h 5.117187 q 2.539063,0 4.160156,-0.2539 1.621094,-0.27344 2.65625,-0.97657 1.09375,-0.76172 1.601563,-1.73828 0.507812,-0.97656 0.507812,-2.51953 z" />
        <path
           style="stroke:#0000ff;stroke-opacity:1"
           inkscape:connector-curvature="0"
           id="path845"
           d="m 4.7890625,182.75103 q 1.7773437,1.95312 2.7148437,4.78515 0.9570313,2.83203 0.9570313,6.42578 0,3.59375 -0.9765625,6.44532 -0.9570313,2.83203 -2.6953125,4.72656 -1.796875,1.97265 -4.2578125,2.96875 -2.4414062,0.99609 -5.5859375,0.99609 -3.0664063,0 -5.5859375,-1.01562 -2.5,-1.01563 -4.257813,-2.94922 -1.757812,-1.9336 -2.714843,-4.7461 -0.9375,-2.8125 -0.9375,-6.42578 0,-3.55468 0.9375,-6.36718 0.9375,-2.83204 2.734375,-4.84375 1.71875,-1.91407 4.257812,-2.92969 2.558594,-1.01563 5.5664065,-1.01563 3.125,0 5.60546875,1.03516 2.50000005,1.01562 4.23828125,2.91016 z M 4.4375,193.96196 q 0,-5.66406 -2.5390625,-8.73047 -2.5390625,-3.08593 -6.9335937,-3.08593 -4.4335938,0 -6.9726568,3.08593 -2.519531,3.06641 -2.519531,8.73047 0,5.72266 2.578125,8.76953 2.5781252,3.02735 6.9140628,3.02735 4.33593745,0 6.8945312,-3.02735 2.578125,-3.04687 2.578125,-8.76953 z" />
        <path
           style="stroke:#0000ff;stroke-opacity:1"
           inkscape:connector-curvature="0"
           id="path847"
           d="m 36.273437,182.75103 q 1.777344,1.95312 2.714844,4.78515 0.957031,2.83203 0.957031,6.42578 0,3.59375 -0.976562,6.44532 -0.957031,2.83203 -2.695313,4.72656 -1.796875,1.97265 -4.257812,2.96875 -2.441406,0.99609 -5.585938,0.99609 -3.066406,0 -5.585937,-1.01562 -2.5,-1.01563 -4.257813,-2.94922 -1.757812,-1.9336 -2.714843,-4.7461 -0.9375,-2.8125 -0.9375,-6.42578 0,-3.55468 0.9375,-6.36718 0.9375,-2.83204 2.734375,-4.84375 1.71875,-1.91407 4.257812,-2.92969 2.558594,-1.01563 5.566406,-1.01563 3.125,0 5.605469,1.03516 2.5,1.01562 4.238281,2.91016 z m -0.351562,11.21093 q 0,-5.66406 -2.539063,-8.73047 -2.539062,-3.08593 -6.933593,-3.08593 -4.433594,0 -6.972657,3.08593 -2.519531,3.06641 -2.519531,8.73047 0,5.72266 2.578125,8.76953 2.578125,3.02735 6.914063,3.02735 4.335937,0 6.894531,-3.02735 2.578125,-3.04687 2.578125,-8.76953 z" />
        <path
           style="stroke:#0000ff;stroke-opacity:1"
           inkscape:connector-curvature="0"
           id="path849"
           d="M 71.976562,208.49321 H 68.109375 V 183.43462 L 60.023437,200.4854 H 57.71875 l -8.027344,-17.05078 v 25.05859 h -3.613281 v -29.08203 h 5.273437 l 7.753907,16.19141 7.5,-16.19141 h 5.371093 z" />
        <path
           style="stroke:#0000ff;stroke-opacity:1"
           inkscape:connector-curvature="0"
           id="path851"
           d="m 85.980469,179.41118 -0.507813,21.07422 h -3.320312 l -0.546875,-21.07422 z m -0.195313,29.08203 h -3.984375 v -4.12109 h 3.984375 z" />
      </g>
    </g>
    <g
       id="g953"
       inkscape:export-xdpi="96"
       inkscape:export-ydpi="96">
      <g
         id="g942">
        <g
           id="g930">
          <path
             transform="matrix(1.5014968,0,0,1.4996407,191.90421,-524.13831)"
             d="m 64.000002,664.70831 -3.013948,-16.09471 -5.007379,15.59005 -0.972979,-16.34555 -6.921847,14.83954 1.083334,-16.33861 -8.727153,13.85498 3.122563,-16.074 -10.394827,12.65193 5.112547,-15.55589 -11.898568,11.24935 7.021903,-14.79245 -13.214662,9.66936 8.820519,-13.79574 -14.322351,7.93688 L 25.167184,628.922 9.9630137,635.00123 21.937279,623.83249 6.0910694,627.95819 19.370728,618.37829 3.1323835,620.4854 17.508008,612.64543 1.1336163,612.70072 16.378494,606.72431 0.12628949,604.72691 16,600.70831 0.12628927,596.68972 16.378494,594.69232 1.1336156,588.71591 17.508009,588.7712 3.1323824,580.93123 19.370729,583.03833 6.0910679,573.45844 21.93728,577.58414 9.9630118,566.4154 l 15.2041732,6.07922 -10.480034,-12.58144 14.322356,7.93687 -8.820523,-13.79573 13.214665,9.66936 -7.021907,-14.79245 11.898573,11.24934 -5.112552,-15.55588 10.394832,12.65192 -3.122568,-16.07399 8.727158,13.85498 -1.083339,-16.33861 6.921852,14.83953 0.972973,-16.34555 5.007385,15.59006 3.013942,-16.09472 3.013948,16.09472 5.007379,-15.59006 0.972979,16.34556 6.921847,-14.83954 -1.083334,16.33861 8.727153,-13.85498 -3.122563,16.07399 10.394827,-12.65193 -5.112547,15.55589 11.898563,-11.24935 -7.021898,14.79246 13.214658,-9.66936 -8.820515,13.79573 14.322355,-7.93687 -10.48003,12.58144 15.20417,-6.07922 -11.97427,11.16874 15.84621,-4.1257 -13.27966,9.5799 16.23835,-2.10712 -14.37563,7.83998 16.37439,-0.0553 -15.24487,5.97641 16.2522,1.9974 -15.87371,4.01859 15.87371,4.01859 -16.2522,1.99741 15.24487,5.97641 -16.37439,-0.0553 14.37563,7.83997 -16.23835,-2.10711 13.27966,9.5799 -15.84621,-4.1257 11.97427,11.16874 -15.20417,-6.07922 10.48003,12.58144 -14.322357,-7.93688 8.820527,13.79573 -13.214669,-9.66935 7.021909,14.79245 -11.898575,-11.24935 5.112552,15.55589 -10.394832,-12.65193 3.122568,16.074 -8.727158,-13.85498 1.083339,16.3386 -6.921852,-14.83953 -0.972973,16.34555 -5.007385,-15.59005 z"
             inkscape:randomized="0"
             inkscape:rounded="0"
             inkscape:flatsided="false"
             sodipodi:arg2="1.6336282"
             sodipodi:arg1="1.5707963"
             sodipodi:r2="48"
             sodipodi:r1="64"
             sodipodi:cy="600.70831"
             sodipodi:cx="64"
             sodipodi:sides="50"
             id="path823-7"
             style="fill:#ffff00;fill-opacity:1;stroke:none;stroke-width:0.33311388;stroke-linejoin:miter;stroke-miterlimit:4;stroke-dasharray:none;stroke-opacity:1"
             sodipodi:type="star" />
          <path
             d="m 287.96756,456.84348 -3.77488,-20.15818 -6.2716,19.5261 -1.21863,-20.47233 -8.66942,18.58609 1.35685,-20.46364 -10.93051,17.35297 3.91092,-20.13223 -13.01922,15.84619 6.40332,-19.48331 -14.90262,14.08949 8.79473,-18.52713 -16.55098,12.1106 11.04744,-17.27876 -17.93833,9.94071 13.12594,-15.7579 -19.04279,7.61405 14.99742,-13.98853 -19.84692,5.16732 16.63239,-11.99854 -20.33806,2.63909 18.00506,-9.81934 -20.50846,0.0693 19.09377,-7.48529 -20.35542,-2.50168 19.88137,-5.03318 -19.88137,-5.03317 20.35542,-2.50169 -19.09377,-7.48528 20.50846,0.0693 -18.00506,-9.81934 20.33806,2.63909 -16.63239,-11.99855 19.84692,5.16732 -14.99742,-13.98852 19.04279,7.61405 -13.12595,-15.7579 17.93835,9.94071 -11.04746,-17.27876 16.55099,12.11059 -8.79473,-18.52712 14.90262,14.08948 -6.40333,-19.4833 13.01923,15.84618 -3.91092,-20.13222 10.93051,17.35297 -1.35685,-20.46364 8.66942,18.58609 1.21862,-20.47234 6.27161,19.5261 3.77488,-20.15817 3.77488,20.15817 6.2716,-19.5261 1.21863,20.47234 8.66941,-18.58609 -1.35684,20.46364 10.93051,-17.35297 -3.91092,20.13222 13.01922,-15.84618 -6.40332,19.48331 14.90262,-14.08949 -8.79473,18.52712 16.55098,-12.11059 -11.04744,17.27876 17.93833,-9.94071 -13.12594,15.7579 19.04279,-7.61406 -14.99742,13.98853 19.84692,-5.16732 -16.63239,11.99855 20.33806,-2.6391 -18.00506,9.81935 20.50846,-0.0693 -19.09377,7.48528 20.35542,2.50169 -19.88137,5.03317 19.88137,5.03317 -20.35542,2.5017 19.09377,7.48527 -20.50846,-0.0692 18.00506,9.81934 -20.33806,-2.63909 16.63239,11.99854 -19.84692,-5.16732 14.99742,13.98853 -19.04279,-7.61405 13.12594,15.75789 -17.93834,-9.9407 11.04746,17.27875 -16.55099,-12.11059 8.79473,18.52713 -14.90262,-14.08949 6.40333,19.4833 -13.01923,-15.84617 3.91092,20.13222 -10.93051,-17.35297 1.35685,20.46364 -8.66942,-18.58609 -1.21863,20.47233 -6.2716,-19.5261 z"
             inkscape:randomized="0"
             inkscape:rounded="0"
             inkscape:flatsided="false"
             sodipodi:arg2="1.6336282"
             sodipodi:arg1="1.5707963"
             sodipodi:r2="60.118629"
             sodipodi:r1="80.158173"
             sodipodi:cy="376.68531"
             sodipodi:cx="287.96756"
             sodipodi:sides="50"
             id="path827-0"
             style="fill:#ff8200;fill-opacity:1;stroke:none;stroke-width:0.62623572;stroke-linejoin:miter;stroke-miterlimit:4;stroke-dasharray:none;stroke-opacity:1"
             sodipodi:type="star" />
        </g>
        <g
           id="g934">
          <path
             d="m 287.96756,440.81184 -3.01991,-16.12654 -5.01728,15.62089 -0.9749,-16.37787 -6.93553,14.86887 1.08548,-16.37091 -8.74441,13.88237 3.12873,-16.10578 -10.41538,12.67695 5.12266,-15.58665 -11.92209,11.2716 7.03578,-14.82171 -13.24079,9.68848 8.83796,-13.82301 -14.35067,7.95257 10.50075,-12.60632 -15.23423,6.09124 11.99794,-11.19082 -15.87754,4.13386 13.30592,-9.59884 -16.27045,2.11128 14.40404,-7.85548 -16.40676,0.0554 15.27502,-5.98823 -16.28434,-2.00135 15.90509,-4.02654 -15.90509,-4.02653 16.28434,-2.00136 -15.27502,-5.98822 16.40676,0.0554 -14.40405,-7.85548 16.27046,2.11128 -13.30592,-9.59884 15.87754,4.13385 -11.99794,-11.19081 15.23423,6.09124 -10.50075,-12.60632 14.35067,7.95256 -8.83796,-13.823 13.24079,9.68847 -7.03579,-14.8217 11.9221,11.27159 -5.12266,-15.58664 10.41539,12.67694 -3.12875,-16.10578 8.74442,13.88238 -1.08548,-16.37091 6.93553,14.86887 0.9749,-16.37787 5.01729,15.62088 3.0199,-16.12654 3.0199,16.12654 5.01728,-15.62088 0.97491,16.37787 6.93553,-14.86888 -1.08548,16.37092 8.74441,-13.88238 -3.12873,16.10578 10.41538,-12.67694 -5.12266,15.58664 11.92209,-11.27159 -7.03578,14.8217 13.24079,-9.68848 -8.83796,13.82301 14.35067,-7.95256 -10.50075,12.60632 15.23423,-6.09125 -11.99794,11.19083 15.87754,-4.13386 -13.30592,9.59884 16.27045,-2.11128 -14.40404,7.85548 16.40676,-0.0554 -15.27502,5.98822 16.28434,2.00135 -15.90509,4.02654 15.90509,4.02654 -16.28434,2.00135 15.27502,5.98823 -16.40676,-0.0554 14.40405,7.85547 -16.27046,-2.11127 13.30592,9.59883 -15.87754,-4.13385 11.99794,11.19082 -15.23423,-6.09124 10.50075,12.60632 -14.35067,-7.95257 8.83796,13.82301 -13.24079,-9.68847 7.03579,14.82169 -11.9221,-11.27158 5.12266,15.58664 -10.41539,-12.67694 3.12875,16.10577 -8.74442,-13.88237 1.08548,16.37091 -6.93553,-14.86887 -0.9749,16.37787 -5.01729,-15.62089 z"
             inkscape:randomized="0"
             inkscape:rounded="0"
             inkscape:flatsided="false"
             sodipodi:arg2="1.6336282"
             sodipodi:arg1="1.5707963"
             sodipodi:r2="48.094906"
             sodipodi:r1="64.126541"
             sodipodi:cy="376.68531"
             sodipodi:cx="287.96756"
             sodipodi:sides="50"
             id="path829-7"
             style="fill:#ff4100;fill-opacity:1;stroke:none;stroke-width:0.66798478;stroke-linejoin:miter;stroke-miterlimit:4;stroke-dasharray:none;stroke-opacity:1"
             sodipodi:type="star" />
          <path
             d="m 287.96756,428.68531 -2.44883,-13.07696 -4.0685,12.66692 -0.79054,-13.28076 -5.624,12.05712 0.88021,-13.27512 -7.09082,11.25718 2.53709,-13.06013 -8.4458,10.2797 4.15394,-12.63917 -9.66759,9.1401 5.7053,-12.01887 -10.73691,7.85636 7.16667,-11.20904 -11.63691,6.44872 8.51502,-10.22243 -12.35339,4.93937 9.7291,-9.0746 -12.87505,3.35213 10.78972,-7.78367 -13.19366,1.71203 11.6802,-6.36998 -13.30419,0.0449 12.38646,-4.85583 -13.20492,-1.62289 12.8974,-3.26511 -12.8974,-3.2651 13.20492,-1.62289 -12.38646,-4.85584 13.30419,0.0449 -11.6802,-6.36998 13.19366,1.71202 -10.78972,-7.78366 12.87505,3.35213 -9.7291,-9.0746 12.35339,4.93937 -8.51503,-10.22243 11.63692,6.44871 -7.16668,-11.20903 10.73692,7.85635 -5.7053,-12.01887 9.66759,9.1401 -4.15395,-12.63916 8.44581,10.27969 -2.53709,-13.06012 7.09082,11.25717 -0.88022,-13.27512 5.62401,12.05713 0.79054,-13.28077 4.0685,12.66693 2.44883,-13.07696 2.44883,13.07696 4.0685,-12.66693 0.79054,13.28077 5.624,-12.05713 -0.88021,13.27513 7.09082,-11.25718 -2.53709,13.06012 8.4458,-10.27969 -4.15394,12.63916 9.66759,-9.1401 -5.7053,12.01887 10.73691,-7.85635 -7.16667,11.20903 11.63691,-6.44871 -8.51502,10.22243 12.35339,-4.93938 -9.7291,9.07461 12.87505,-3.35213 -10.78972,7.78366 13.19366,-1.71202 -11.6802,6.36998 13.30419,-0.0449 -12.38646,4.85584 13.20492,1.62288 -12.8974,3.26511 12.8974,3.26511 -13.20492,1.62289 12.38646,4.85583 -13.30419,-0.0449 11.6802,6.36998 -13.19366,-1.71203 10.78972,7.78367 -12.87505,-3.35213 9.7291,9.0746 -12.35339,-4.93937 8.51503,10.22242 -11.63692,-6.44871 7.16668,11.20904 -10.73692,-7.85636 5.7053,12.01887 -9.66759,-9.14009 4.15395,12.63916 -8.44581,-10.2797 2.53709,13.06013 -7.09082,-11.25718 0.88022,13.27512 -5.62401,-12.05712 -0.79054,13.28076 -4.0685,-12.66692 z"
             inkscape:randomized="0"
             inkscape:rounded="0"
             inkscape:flatsided="false"
             sodipodi:arg2="1.6336282"
             sodipodi:arg1="1.5707963"
             sodipodi:r2="39.000004"
             sodipodi:r1="52.000008"
             sodipodi:cy="376.68531"
             sodipodi:cx="287.96756"
             sodipodi:sides="50"
             id="path831-3"
             style="fill:#ff0900;fill-opacity:1;stroke:none;stroke-width:0.59090918;stroke-linejoin:miter;stroke-miterlimit:4;stroke-dasharray:none;stroke-opacity:1"
             sodipodi:type="star" />
        </g>
      </g>
      <text
         transform="rotate(-30)"
         id="text926"
         y="484.47726"
         x="-12.278684"
         style="font-style:normal;font-weight:normal;font-size:40px;line-height:1.25;font-family:sans-serif;letter-spacing:0px;word-spacing:0px;fill:#00fa00;fill-opacity:1;stroke:#0000ff;stroke-opacity:1"
         xml:space="preserve"><tspan
           y="484.47726"
           x="-12.278684"
           id="tspan924"
           sodipodi:role="line">!DUAR!</tspan></text>
    </g>
  </g>
</svg>
