# Tiled2Unity generated file. Do not modify by hand.
# Wavefront file for 'MyLevel_mesh_0005.obj'

# Vertices (Count = 28)
v -17.81818 -7.636364 0
v -19.09091 -7.636364 0
v -19.09091 -6.363636 0
v -17.81818 -6.363636 0
v -20.36364 -7.636364 0
v -21.63636 -7.636364 0
v -21.63636 -6.363636 0
v -20.36364 -6.363636 0
v -24.18182 -7.636364 0
v -25.45454 -7.636364 0
v -25.45454 -6.363636 0
v -24.18182 -6.363636 0
v -36.90909 -7.636364 0
v -38.18182 -7.636364 0
v -38.18182 -6.363636 0
v -36.90909 -6.363636 0
v -39.45454 -7.636364 0
v -40.72727 -7.636364 0
v -40.72727 -6.363636 0
v -39.45454 -6.363636 0
v -45.81818 -7.636364 0
v -47.09091 -7.636364 0
v -47.09091 -6.363636 0
v -45.81818 -6.363636 0
v -50.90909 -7.636364 0
v -52.18182 -7.636364 0
v -52.18182 -6.363636 0
v -50.90909 -6.363636 0

# Texture cooridinates (Count = 4)
vt 0 0
vt 1 0
vt 1 1
vt 0 1

# Normal
vn 0 0 -1

# Mesh description
g MyLevel_mesh_0005

# Faces
f 1/1/1 2/2/1 3/3/1 4/4/1
f 5/1/1 6/2/1 7/3/1 8/4/1
f 9/1/1 10/2/1 11/3/1 12/4/1
f 13/1/1 14/2/1 15/3/1 16/4/1
f 17/1/1 18/2/1 19/3/1 20/4/1
f 21/1/1 22/2/1 23/3/1 24/4/1
f 25/1/1 26/2/1 27/3/1 28/4/1

