# Tiled2Unity generated file. Do not modify by hand.
# Wavefront file for 'Level01_mesh_0001.obj'

# Vertices (Count = 884)
v 0 -1.4 0
v -1.4 -1.4 0
v -1.4 0 0
v 0 0 0
v -1.4 -1.4 0
v -2.8 -1.4 0
v -2.8 0 0
v -1.4 0 0
v -2.8 -1.4 0
v -4.2 -1.4 0
v -4.2 0 0
v -2.8 0 0
v -68.6 -1.4 0
v -70 -1.4 0
v -70 0 0
v -68.6 0 0
v 0 -2.8 0
v -1.4 -2.8 0
v -1.4 -1.4 0
v 0 -1.4 0
v -1.4 -2.8 0
v -2.8 -2.8 0
v -2.8 -1.4 0
v -1.4 -1.4 0
v -2.8 -2.8 0
v -4.2 -2.8 0
v -4.2 -1.4 0
v -2.8 -1.4 0
v -23.8 -2.8 0
v -25.2 -2.8 0
v -25.2 -1.4 0
v -23.8 -1.4 0
v -43.4 -2.8 0
v -44.8 -2.8 0
v -44.8 -1.4 0
v -43.4 -1.4 0
v -68.6 -2.8 0
v -70 -2.8 0
v -70 -1.4 0
v -68.6 -1.4 0
v 0 -4.2 0
v -1.4 -4.2 0
v -1.4 -2.8 0
v 0 -2.8 0
v -1.4 -4.2 0
v -2.8 -4.2 0
v -2.8 -2.8 0
v -1.4 -2.8 0
v -2.8 -4.2 0
v -4.2 -4.2 0
v -4.2 -2.8 0
v -2.8 -2.8 0
v -68.6 -4.2 0
v -70 -4.2 0
v -70 -2.8 0
v -68.6 -2.8 0
v 0 -5.6 0
v -1.4 -5.6 0
v -1.4 -4.2 0
v 0 -4.2 0
v -1.4 -5.6 0
v -2.8 -5.6 0
v -2.8 -4.2 0
v -1.4 -4.2 0
v -2.8 -5.6 0
v -4.2 -5.6 0
v -4.2 -4.2 0
v -2.8 -4.2 0
v -68.6 -5.6 0
v -70 -5.6 0
v -70 -4.2 0
v -68.6 -4.2 0
v 0 -7 0
v -1.4 -7 0
v -1.4 -5.6 0
v 0 -5.6 0
v -1.4 -7 0
v -2.8 -7 0
v -2.8 -5.6 0
v -1.4 -5.6 0
v -2.8 -7 0
v -4.2 -7 0
v -4.2 -5.6 0
v -2.8 -5.6 0
v -21 -7 0
v -22.4 -7 0
v -22.4 -5.6 0
v -21 -5.6 0
v -22.4 -7 0
v -23.8 -7 0
v -23.8 -5.6 0
v -22.4 -5.6 0
v -23.8 -7 0
v -25.2 -7 0
v -25.2 -5.6 0
v -23.8 -5.6 0
v -25.2 -7 0
v -26.6 -7 0
v -26.6 -5.6 0
v -25.2 -5.6 0
v -26.6 -7 0
v -28 -7 0
v -28 -5.6 0
v -26.6 -5.6 0
v -44.8 -7 0
v -46.2 -7 0
v -46.2 -5.6 0
v -44.8 -5.6 0
v -68.6 -7 0
v -70 -7 0
v -70 -5.6 0
v -68.6 -5.6 0
v 0 -8.4 0
v -1.4 -8.4 0
v -1.4 -7 0
v 0 -7 0
v -1.4 -8.4 0
v -2.8 -8.4 0
v -2.8 -7 0
v -1.4 -7 0
v -2.8 -8.4 0
v -4.2 -8.4 0
v -4.2 -7 0
v -2.8 -7 0
v -50.4 -8.4 0
v -51.8 -8.4 0
v -51.8 -7 0
v -50.4 -7 0
v -51.8 -8.4 0
v -53.2 -8.4 0
v -53.2 -7 0
v -51.8 -7 0
v -68.6 -8.4 0
v -70 -8.4 0
v -70 -7 0
v -68.6 -7 0
v 0 -9.8 0
v -1.4 -9.8 0
v -1.4 -8.4 0
v 0 -8.4 0
v -1.4 -9.8 0
v -2.8 -9.8 0
v -2.8 -8.4 0
v -1.4 -8.4 0
v -2.8 -9.8 0
v -4.2 -9.8 0
v -4.2 -8.4 0
v -2.8 -8.4 0
v -68.6 -9.8 0
v -70 -9.8 0
v -70 -8.4 0
v -68.6 -8.4 0
v 0 -11.2 0
v -1.4 -11.2 0
v -1.4 -9.8 0
v 0 -9.8 0
v -1.4 -11.2 0
v -2.8 -11.2 0
v -2.8 -9.8 0
v -1.4 -9.8 0
v -2.8 -11.2 0
v -4.2 -11.2 0
v -4.2 -9.8 0
v -2.8 -9.8 0
v -58.8 -11.2 0
v -60.2 -11.2 0
v -60.2 -9.8 0
v -58.8 -9.8 0
v -60.2 -11.2 0
v -61.6 -11.2 0
v -61.6 -9.8 0
v -60.2 -9.8 0
v -61.6 -11.2 0
v -63 -11.2 0
v -63 -9.8 0
v -61.6 -9.8 0
v -63 -11.2 0
v -64.4 -11.2 0
v -64.4 -9.8 0
v -63 -9.8 0
v -64.4 -11.2 0
v -65.8 -11.2 0
v -65.8 -9.8 0
v -64.4 -9.8 0
v -65.8 -11.2 0
v -67.2 -11.2 0
v -67.2 -9.8 0
v -65.8 -9.8 0
v -67.2 -11.2 0
v -68.6 -11.2 0
v -68.6 -9.8 0
v -67.2 -9.8 0
v -68.6 -11.2 0
v -70 -11.2 0
v -70 -9.8 0
v -68.6 -9.8 0
v 0 -12.6 0
v -1.4 -12.6 0
v -1.4 -11.2 0
v 0 -11.2 0
v -1.4 -12.6 0
v -2.8 -12.6 0
v -2.8 -11.2 0
v -1.4 -11.2 0
v -2.8 -12.6 0
v -4.2 -12.6 0
v -4.2 -11.2 0
v -2.8 -11.2 0
v -4.2 -12.6 0
v -5.6 -12.6 0
v -5.6 -11.2 0
v -4.2 -11.2 0
v -5.6 -12.6 0
v -7 -12.6 0
v -7 -11.2 0
v -5.6 -11.2 0
v -7 -12.6 0
v -8.4 -12.6 0
v -8.4 -11.2 0
v -7 -11.2 0
v -8.4 -12.6 0
v -9.8 -12.6 0
v -9.8 -11.2 0
v -8.4 -11.2 0
v -9.8 -12.6 0
v -11.2 -12.6 0
v -11.2 -11.2 0
v -9.8 -11.2 0
v -11.2 -12.6 0
v -12.6 -12.6 0
v -12.6 -11.2 0
v -11.2 -11.2 0
v -12.6 -12.6 0
v -14 -12.6 0
v -14 -11.2 0
v -12.6 -11.2 0
v -18.2 -12.6 0
v -19.6 -12.6 0
v -19.6 -11.2 0
v -18.2 -11.2 0
v -19.6 -12.6 0
v -21 -12.6 0
v -21 -11.2 0
v -19.6 -11.2 0
v -21 -12.6 0
v -22.4 -12.6 0
v -22.4 -11.2 0
v -21 -11.2 0
v -22.4 -12.6 0
v -23.8 -12.6 0
v -23.8 -11.2 0
v -22.4 -11.2 0
v -23.8 -12.6 0
v -25.2 -12.6 0
v -25.2 -11.2 0
v -23.8 -11.2 0
v -25.2 -12.6 0
v -26.6 -12.6 0
v -26.6 -11.2 0
v -25.2 -11.2 0
v -26.6 -12.6 0
v -28 -12.6 0
v -28 -11.2 0
v -26.6 -11.2 0
v -28 -12.6 0
v -29.4 -12.6 0
v -29.4 -11.2 0
v -28 -11.2 0
v -29.4 -12.6 0
v -30.8 -12.6 0
v -30.8 -11.2 0
v -29.4 -11.2 0
v -30.8 -12.6 0
v -32.2 -12.6 0
v -32.2 -11.2 0
v -30.8 -11.2 0
v -32.2 -12.6 0
v -33.6 -12.6 0
v -33.6 -11.2 0
v -32.2 -11.2 0
v -33.6 -12.6 0
v -35 -12.6 0
v -35 -11.2 0
v -33.6 -11.2 0
v -35 -12.6 0
v -36.4 -12.6 0
v -36.4 -11.2 0
v -35 -11.2 0
v -36.4 -12.6 0
v -37.8 -12.6 0
v -37.8 -11.2 0
v -36.4 -11.2 0
v -42 -12.6 0
v -43.4 -12.6 0
v -43.4 -11.2 0
v -42 -11.2 0
v -43.4 -12.6 0
v -44.8 -12.6 0
v -44.8 -11.2 0
v -43.4 -11.2 0
v -44.8 -12.6 0
v -46.2 -12.6 0
v -46.2 -11.2 0
v -44.8 -11.2 0
v -46.2 -12.6 0
v -47.6 -12.6 0
v -47.6 -11.2 0
v -46.2 -11.2 0
v -47.6 -12.6 0
v -49 -12.6 0
v -49 -11.2 0
v -47.6 -11.2 0
v -54.6 -12.6 0
v -56 -12.6 0
v -56 -11.2 0
v -54.6 -11.2 0
v -56 -12.6 0
v -57.4 -12.6 0
v -57.4 -11.2 0
v -56 -11.2 0
v -57.4 -12.6 0
v -58.8 -12.6 0
v -58.8 -11.2 0
v -57.4 -11.2 0
v -58.8 -12.6 0
v -60.2 -12.6 0
v -60.2 -11.2 0
v -58.8 -11.2 0
v -60.2 -12.6 0
v -61.6 -12.6 0
v -61.6 -11.2 0
v -60.2 -11.2 0
v -61.6 -12.6 0
v -63 -12.6 0
v -63 -11.2 0
v -61.6 -11.2 0
v -63 -12.6 0
v -64.4 -12.6 0
v -64.4 -11.2 0
v -63 -11.2 0
v -64.4 -12.6 0
v -65.8 -12.6 0
v -65.8 -11.2 0
v -64.4 -11.2 0
v -65.8 -12.6 0
v -67.2 -12.6 0
v -67.2 -11.2 0
v -65.8 -11.2 0
v -67.2 -12.6 0
v -68.6 -12.6 0
v -68.6 -11.2 0
v -67.2 -11.2 0
v -68.6 -12.6 0
v -70 -12.6 0
v -70 -11.2 0
v -68.6 -11.2 0
v 0 -14 0
v -1.4 -14 0
v -1.4 -12.6 0
v 0 -12.6 0
v -1.4 -14 0
v -2.8 -14 0
v -2.8 -12.6 0
v -1.4 -12.6 0
v -2.8 -14 0
v -4.2 -14 0
v -4.2 -12.6 0
v -2.8 -12.6 0
v -4.2 -14 0
v -5.6 -14 0
v -5.6 -12.6 0
v -4.2 -12.6 0
v -5.6 -14 0
v -7 -14 0
v -7 -12.6 0
v -5.6 -12.6 0
v -7 -14 0
v -8.4 -14 0
v -8.4 -12.6 0
v -7 -12.6 0
v -8.4 -14 0
v -9.8 -14 0
v -9.8 -12.6 0
v -8.4 -12.6 0
v -9.8 -14 0
v -11.2 -14 0
v -11.2 -12.6 0
v -9.8 -12.6 0
v -11.2 -14 0
v -12.6 -14 0
v -12.6 -12.6 0
v -11.2 -12.6 0
v -12.6 -14 0
v -14 -14 0
v -14 -12.6 0
v -12.6 -12.6 0
v -18.2 -14 0
v -19.6 -14 0
v -19.6 -12.6 0
v -18.2 -12.6 0
v -19.6 -14 0
v -21 -14 0
v -21 -12.6 0
v -19.6 -12.6 0
v -21 -14 0
v -22.4 -14 0
v -22.4 -12.6 0
v -21 -12.6 0
v -22.4 -14 0
v -23.8 -14 0
v -23.8 -12.6 0
v -22.4 -12.6 0
v -23.8 -14 0
v -25.2 -14 0
v -25.2 -12.6 0
v -23.8 -12.6 0
v -25.2 -14 0
v -26.6 -14 0
v -26.6 -12.6 0
v -25.2 -12.6 0
v -26.6 -14 0
v -28 -14 0
v -28 -12.6 0
v -26.6 -12.6 0
v -28 -14 0
v -29.4 -14 0
v -29.4 -12.6 0
v -28 -12.6 0
v -29.4 -14 0
v -30.8 -14 0
v -30.8 -12.6 0
v -29.4 -12.6 0
v -30.8 -14 0
v -32.2 -14 0
v -32.2 -12.6 0
v -30.8 -12.6 0
v -32.2 -14 0
v -33.6 -14 0
v -33.6 -12.6 0
v -32.2 -12.6 0
v -33.6 -14 0
v -35 -14 0
v -35 -12.6 0
v -33.6 -12.6 0
v -35 -14 0
v -36.4 -14 0
v -36.4 -12.6 0
v -35 -12.6 0
v -36.4 -14 0
v -37.8 -14 0
v -37.8 -12.6 0
v -36.4 -12.6 0
v -42 -14 0
v -43.4 -14 0
v -43.4 -12.6 0
v -42 -12.6 0
v -43.4 -14 0
v -44.8 -14 0
v -44.8 -12.6 0
v -43.4 -12.6 0
v -44.8 -14 0
v -46.2 -14 0
v -46.2 -12.6 0
v -44.8 -12.6 0
v -46.2 -14 0
v -47.6 -14 0
v -47.6 -12.6 0
v -46.2 -12.6 0
v -47.6 -14 0
v -49 -14 0
v -49 -12.6 0
v -47.6 -12.6 0
v -49 -14 0
v -50.4 -14 0
v -50.4 -12.6 0
v -49 -12.6 0
v -50.4 -14 0
v -51.8 -14 0
v -51.8 -12.6 0
v -50.4 -12.6 0
v -51.8 -14 0
v -53.2 -14 0
v -53.2 -12.6 0
v -51.8 -12.6 0
v -53.2 -14 0
v -54.6 -14 0
v -54.6 -12.6 0
v -53.2 -12.6 0
v -54.6 -14 0
v -56 -14 0
v -56 -12.6 0
v -54.6 -12.6 0
v -56 -14 0
v -57.4 -14 0
v -57.4 -12.6 0
v -56 -12.6 0
v -57.4 -14 0
v -58.8 -14 0
v -58.8 -12.6 0
v -57.4 -12.6 0
v -58.8 -14 0
v -60.2 -14 0
v -60.2 -12.6 0
v -58.8 -12.6 0
v -60.2 -14 0
v -61.6 -14 0
v -61.6 -12.6 0
v -60.2 -12.6 0
v -61.6 -14 0
v -63 -14 0
v -63 -12.6 0
v -61.6 -12.6 0
v -63 -14 0
v -64.4 -14 0
v -64.4 -12.6 0
v -63 -12.6 0
v -64.4 -14 0
v -65.8 -14 0
v -65.8 -12.6 0
v -64.4 -12.6 0
v -65.8 -14 0
v -67.2 -14 0
v -67.2 -12.6 0
v -65.8 -12.6 0
v -67.2 -14 0
v -68.6 -14 0
v -68.6 -12.6 0
v -67.2 -12.6 0
v -68.6 -14 0
v -70 -14 0
v -70 -12.6 0
v -68.6 -12.6 0
v 0 -15.4 0
v -1.4 -15.4 0
v -1.4 -14 0
v 0 -14 0
v -1.4 -15.4 0
v -2.8 -15.4 0
v -2.8 -14 0
v -1.4 -14 0
v -2.8 -15.4 0
v -4.2 -15.4 0
v -4.2 -14 0
v -2.8 -14 0
v -4.2 -15.4 0
v -5.6 -15.4 0
v -5.6 -14 0
v -4.2 -14 0
v -5.6 -15.4 0
v -7 -15.4 0
v -7 -14 0
v -5.6 -14 0
v -7 -15.4 0
v -8.4 -15.4 0
v -8.4 -14 0
v -7 -14 0
v -8.4 -15.4 0
v -9.8 -15.4 0
v -9.8 -14 0
v -8.4 -14 0
v -9.8 -15.4 0
v -11.2 -15.4 0
v -11.2 -14 0
v -9.8 -14 0
v -11.2 -15.4 0
v -12.6 -15.4 0
v -12.6 -14 0
v -11.2 -14 0
v -12.6 -15.4 0
v -14 -15.4 0
v -14 -14 0
v -12.6 -14 0
v -18.2 -15.4 0
v -19.6 -15.4 0
v -19.6 -14 0
v -18.2 -14 0
v -19.6 -15.4 0
v -21 -15.4 0
v -21 -14 0
v -19.6 -14 0
v -21 -15.4 0
v -22.4 -15.4 0
v -22.4 -14 0
v -21 -14 0
v -22.4 -15.4 0
v -23.8 -15.4 0
v -23.8 -14 0
v -22.4 -14 0
v -23.8 -15.4 0
v -25.2 -15.4 0
v -25.2 -14 0
v -23.8 -14 0
v -25.2 -15.4 0
v -26.6 -15.4 0
v -26.6 -14 0
v -25.2 -14 0
v -26.6 -15.4 0
v -28 -15.4 0
v -28 -14 0
v -26.6 -14 0
v -28 -15.4 0
v -29.4 -15.4 0
v -29.4 -14 0
v -28 -14 0
v -29.4 -15.4 0
v -30.8 -15.4 0
v -30.8 -14 0
v -29.4 -14 0
v -30.8 -15.4 0
v -32.2 -15.4 0
v -32.2 -14 0
v -30.8 -14 0
v -32.2 -15.4 0
v -33.6 -15.4 0
v -33.6 -14 0
v -32.2 -14 0
v -33.6 -15.4 0
v -35 -15.4 0
v -35 -14 0
v -33.6 -14 0
v -35 -15.4 0
v -36.4 -15.4 0
v -36.4 -14 0
v -35 -14 0
v -36.4 -15.4 0
v -37.8 -15.4 0
v -37.8 -14 0
v -36.4 -14 0
v -42 -15.4 0
v -43.4 -15.4 0
v -43.4 -14 0
v -42 -14 0
v -43.4 -15.4 0
v -44.8 -15.4 0
v -44.8 -14 0
v -43.4 -14 0
v -44.8 -15.4 0
v -46.2 -15.4 0
v -46.2 -14 0
v -44.8 -14 0
v -46.2 -15.4 0
v -47.6 -15.4 0
v -47.6 -14 0
v -46.2 -14 0
v -47.6 -15.4 0
v -49 -15.4 0
v -49 -14 0
v -47.6 -14 0
v -49 -15.4 0
v -50.4 -15.4 0
v -50.4 -14 0
v -49 -14 0
v -50.4 -15.4 0
v -51.8 -15.4 0
v -51.8 -14 0
v -50.4 -14 0
v -51.8 -15.4 0
v -53.2 -15.4 0
v -53.2 -14 0
v -51.8 -14 0
v -53.2 -15.4 0
v -54.6 -15.4 0
v -54.6 -14 0
v -53.2 -14 0
v -54.6 -15.4 0
v -56 -15.4 0
v -56 -14 0
v -54.6 -14 0
v -56 -15.4 0
v -57.4 -15.4 0
v -57.4 -14 0
v -56 -14 0
v -57.4 -15.4 0
v -58.8 -15.4 0
v -58.8 -14 0
v -57.4 -14 0
v -58.8 -15.4 0
v -60.2 -15.4 0
v -60.2 -14 0
v -58.8 -14 0
v -60.2 -15.4 0
v -61.6 -15.4 0
v -61.6 -14 0
v -60.2 -14 0
v -61.6 -15.4 0
v -63 -15.4 0
v -63 -14 0
v -61.6 -14 0
v -63 -15.4 0
v -64.4 -15.4 0
v -64.4 -14 0
v -63 -14 0
v -64.4 -15.4 0
v -65.8 -15.4 0
v -65.8 -14 0
v -64.4 -14 0
v -65.8 -15.4 0
v -67.2 -15.4 0
v -67.2 -14 0
v -65.8 -14 0
v -67.2 -15.4 0
v -68.6 -15.4 0
v -68.6 -14 0
v -67.2 -14 0
v -68.6 -15.4 0
v -70 -15.4 0
v -70 -14 0
v -68.6 -14 0
v 0 -16.8 0
v -1.4 -16.8 0
v -1.4 -15.4 0
v 0 -15.4 0
v -1.4 -16.8 0
v -2.8 -16.8 0
v -2.8 -15.4 0
v -1.4 -15.4 0
v -2.8 -16.8 0
v -4.2 -16.8 0
v -4.2 -15.4 0
v -2.8 -15.4 0
v -4.2 -16.8 0
v -5.6 -16.8 0
v -5.6 -15.4 0
v -4.2 -15.4 0
v -5.6 -16.8 0
v -7 -16.8 0
v -7 -15.4 0
v -5.6 -15.4 0
v -7 -16.8 0
v -8.4 -16.8 0
v -8.4 -15.4 0
v -7 -15.4 0
v -8.4 -16.8 0
v -9.8 -16.8 0
v -9.8 -15.4 0
v -8.4 -15.4 0
v -9.8 -16.8 0
v -11.2 -16.8 0
v -11.2 -15.4 0
v -9.8 -15.4 0
v -11.2 -16.8 0
v -12.6 -16.8 0
v -12.6 -15.4 0
v -11.2 -15.4 0
v -12.6 -16.8 0
v -14 -16.8 0
v -14 -15.4 0
v -12.6 -15.4 0
v -18.2 -16.8 0
v -19.6 -16.8 0
v -19.6 -15.4 0
v -18.2 -15.4 0
v -19.6 -16.8 0
v -21 -16.8 0
v -21 -15.4 0
v -19.6 -15.4 0
v -21 -16.8 0
v -22.4 -16.8 0
v -22.4 -15.4 0
v -21 -15.4 0
v -22.4 -16.8 0
v -23.8 -16.8 0
v -23.8 -15.4 0
v -22.4 -15.4 0
v -23.8 -16.8 0
v -25.2 -16.8 0
v -25.2 -15.4 0
v -23.8 -15.4 0
v -25.2 -16.8 0
v -26.6 -16.8 0
v -26.6 -15.4 0
v -25.2 -15.4 0
v -26.6 -16.8 0
v -28 -16.8 0
v -28 -15.4 0
v -26.6 -15.4 0
v -28 -16.8 0
v -29.4 -16.8 0
v -29.4 -15.4 0
v -28 -15.4 0
v -29.4 -16.8 0
v -30.8 -16.8 0
v -30.8 -15.4 0
v -29.4 -15.4 0
v -30.8 -16.8 0
v -32.2 -16.8 0
v -32.2 -15.4 0
v -30.8 -15.4 0
v -32.2 -16.8 0
v -33.6 -16.8 0
v -33.6 -15.4 0
v -32.2 -15.4 0
v -33.6 -16.8 0
v -35 -16.8 0
v -35 -15.4 0
v -33.6 -15.4 0
v -35 -16.8 0
v -36.4 -16.8 0
v -36.4 -15.4 0
v -35 -15.4 0
v -36.4 -16.8 0
v -37.8 -16.8 0
v -37.8 -15.4 0
v -36.4 -15.4 0
v -42 -16.8 0
v -43.4 -16.8 0
v -43.4 -15.4 0
v -42 -15.4 0
v -43.4 -16.8 0
v -44.8 -16.8 0
v -44.8 -15.4 0
v -43.4 -15.4 0
v -44.8 -16.8 0
v -46.2 -16.8 0
v -46.2 -15.4 0
v -44.8 -15.4 0
v -46.2 -16.8 0
v -47.6 -16.8 0
v -47.6 -15.4 0
v -46.2 -15.4 0
v -47.6 -16.8 0
v -49 -16.8 0
v -49 -15.4 0
v -47.6 -15.4 0
v -49 -16.8 0
v -50.4 -16.8 0
v -50.4 -15.4 0
v -49 -15.4 0
v -50.4 -16.8 0
v -51.8 -16.8 0
v -51.8 -15.4 0
v -50.4 -15.4 0
v -51.8 -16.8 0
v -53.2 -16.8 0
v -53.2 -15.4 0
v -51.8 -15.4 0
v -53.2 -16.8 0
v -54.6 -16.8 0
v -54.6 -15.4 0
v -53.2 -15.4 0
v -54.6 -16.8 0
v -56 -16.8 0
v -56 -15.4 0
v -54.6 -15.4 0
v -56 -16.8 0
v -57.4 -16.8 0
v -57.4 -15.4 0
v -56 -15.4 0
v -57.4 -16.8 0
v -58.8 -16.8 0
v -58.8 -15.4 0
v -57.4 -15.4 0
v -58.8 -16.8 0
v -60.2 -16.8 0
v -60.2 -15.4 0
v -58.8 -15.4 0
v -60.2 -16.8 0
v -61.6 -16.8 0
v -61.6 -15.4 0
v -60.2 -15.4 0
v -61.6 -16.8 0
v -63 -16.8 0
v -63 -15.4 0
v -61.6 -15.4 0
v -63 -16.8 0
v -64.4 -16.8 0
v -64.4 -15.4 0
v -63 -15.4 0
v -64.4 -16.8 0
v -65.8 -16.8 0
v -65.8 -15.4 0
v -64.4 -15.4 0
v -65.8 -16.8 0
v -67.2 -16.8 0
v -67.2 -15.4 0
v -65.8 -15.4 0
v -67.2 -16.8 0
v -68.6 -16.8 0
v -68.6 -15.4 0
v -67.2 -15.4 0
v -68.6 -16.8 0
v -70 -16.8 0
v -70 -15.4 0
v -68.6 -15.4 0

# Texture cooridinates (Count = 32)
vt 0.6301969 0.002136767
vt 0.7067834 0.002136767
vt 0.7067834 0.07692307
vt 0.6301969 0.07692307
vt 0 0.9252137
vt 0.07658643 0.9252137
vt 0.07658643 1
vt 0 1
vt 0 0.07905984
vt 0.07658643 0.07905984
vt 0.07658643 0.1538461
vt 0 0.1538461
vt 0.6301969 0.7713675
vt 0.7067834 0.7713675
vt 0.7067834 0.8461539
vt 0.6301969 0.8461539
vt 0.5514223 0.3098291
vt 0.6280087 0.3098291
vt 0.6280087 0.3846154
vt 0.5514223 0.3846154
vt 0.5514223 0.3867521
vt 0.6280087 0.3867521
vt 0.6280087 0.4615384
vt 0.5514223 0.4615384
vt 0.5514223 0.232906
vt 0.6280087 0.232906
vt 0.6280087 0.3076923
vt 0.5514223 0.3076923
vt 0.6301969 0.8482906
vt 0.7067834 0.8482906
vt 0.7067834 0.9230769
vt 0.6301969 0.9230769

# Normal
vn 0 0 -1

# Mesh description
g Level01_mesh_0001

# Faces
f 1/1/1 2/2/1 3/3/1 4/4/1
f 5/1/1 6/2/1 7/3/1 8/4/1
f 9/1/1 10/2/1 11/3/1 12/4/1
f 13/1/1 14/2/1 15/3/1 16/4/1
f 17/1/1 18/2/1 19/3/1 20/4/1
f 21/1/1 22/2/1 23/3/1 24/4/1
f 25/1/1 26/2/1 27/3/1 28/4/1
f 29/5/1 30/6/1 31/7/1 32/8/1
f 33/5/1 34/6/1 35/7/1 36/8/1
f 37/1/1 38/2/1 39/3/1 40/4/1
f 41/1/1 42/2/1 43/3/1 44/4/1
f 45/1/1 46/2/1 47/3/1 48/4/1
f 49/1/1 50/2/1 51/3/1 52/4/1
f 53/1/1 54/2/1 55/3/1 56/4/1
f 57/1/1 58/2/1 59/3/1 60/4/1
f 61/1/1 62/2/1 63/3/1 64/4/1
f 65/1/1 66/2/1 67/3/1 68/4/1
f 69/1/1 70/2/1 71/3/1 72/4/1
f 73/1/1 74/2/1 75/3/1 76/4/1
f 77/1/1 78/2/1 79/3/1 80/4/1
f 81/1/1 82/2/1 83/3/1 84/4/1
f 85/9/1 86/10/1 87/11/1 88/12/1
f 89/5/1 90/6/1 91/7/1 92/8/1
f 93/9/1 94/10/1 95/11/1 96/12/1
f 97/5/1 98/6/1 99/7/1 100/8/1
f 101/9/1 102/10/1 103/11/1 104/12/1
f 105/9/1 106/10/1 107/11/1 108/12/1
f 109/1/1 110/2/1 111/3/1 112/4/1
f 113/1/1 114/2/1 115/3/1 116/4/1
f 117/1/1 118/2/1 119/3/1 120/4/1
f 121/1/1 122/2/1 123/3/1 124/4/1
f 125/9/1 126/10/1 127/11/1 128/12/1
f 129/9/1 130/10/1 131/11/1 132/12/1
f 133/1/1 134/2/1 135/3/1 136/4/1
f 137/1/1 138/2/1 139/3/1 140/4/1
f 141/1/1 142/2/1 143/3/1 144/4/1
f 145/1/1 146/2/1 147/3/1 148/4/1
f 149/1/1 150/2/1 151/3/1 152/4/1
f 153/1/1 154/2/1 155/3/1 156/4/1
f 157/1/1 158/2/1 159/3/1 160/4/1
f 161/1/1 162/2/1 163/3/1 164/4/1
f 165/13/1 166/14/1 167/15/1 168/16/1
f 169/17/1 170/18/1 171/19/1 172/20/1
f 173/17/1 174/18/1 175/19/1 176/20/1
f 177/17/1 178/18/1 179/19/1 180/20/1
f 181/17/1 182/18/1 183/19/1 184/20/1
f 185/17/1 186/18/1 187/19/1 188/20/1
f 189/17/1 190/18/1 191/19/1 192/20/1
f 193/1/1 194/2/1 195/3/1 196/4/1
f 197/1/1 198/2/1 199/3/1 200/4/1
f 201/1/1 202/2/1 203/3/1 204/4/1
f 205/1/1 206/2/1 207/3/1 208/4/1
f 209/17/1 210/18/1 211/19/1 212/20/1
f 213/17/1 214/18/1 215/19/1 216/20/1
f 217/17/1 218/18/1 219/19/1 220/20/1
f 221/17/1 222/18/1 223/19/1 224/20/1
f 225/17/1 226/18/1 227/19/1 228/20/1
f 229/17/1 230/18/1 231/19/1 232/20/1
f 233/21/1 234/22/1 235/23/1 236/24/1
f 237/25/1 238/26/1 239/27/1 240/28/1
f 241/17/1 242/18/1 243/19/1 244/20/1
f 245/17/1 246/18/1 247/19/1 248/20/1
f 249/17/1 250/18/1 251/19/1 252/20/1
f 253/17/1 254/18/1 255/19/1 256/20/1
f 257/17/1 258/18/1 259/19/1 260/20/1
f 261/17/1 262/18/1 263/19/1 264/20/1
f 265/17/1 266/18/1 267/19/1 268/20/1
f 269/17/1 270/18/1 271/19/1 272/20/1
f 273/17/1 274/18/1 275/19/1 276/20/1
f 277/17/1 278/18/1 279/19/1 280/20/1
f 281/17/1 282/18/1 283/19/1 284/20/1
f 285/17/1 286/18/1 287/19/1 288/20/1
f 289/21/1 290/22/1 291/23/1 292/24/1
f 293/25/1 294/26/1 295/27/1 296/28/1
f 297/17/1 298/18/1 299/19/1 300/20/1
f 301/17/1 302/18/1 303/19/1 304/20/1
f 305/17/1 306/18/1 307/19/1 308/20/1
f 309/21/1 310/22/1 311/23/1 312/24/1
f 313/25/1 314/26/1 315/27/1 316/28/1
f 317/17/1 318/18/1 319/19/1 320/20/1
f 321/17/1 322/18/1 323/19/1 324/20/1
f 325/29/1 326/30/1 327/31/1 328/32/1
f 329/1/1 330/2/1 331/3/1 332/4/1
f 333/1/1 334/2/1 335/3/1 336/4/1
f 337/1/1 338/2/1 339/3/1 340/4/1
f 341/1/1 342/2/1 343/3/1 344/4/1
f 345/1/1 346/2/1 347/3/1 348/4/1
f 349/1/1 350/2/1 351/3/1 352/4/1
f 353/1/1 354/2/1 355/3/1 356/4/1
f 357/1/1 358/2/1 359/3/1 360/4/1
f 361/1/1 362/2/1 363/3/1 364/4/1
f 365/1/1 366/2/1 367/3/1 368/4/1
f 369/1/1 370/2/1 371/3/1 372/4/1
f 373/1/1 374/2/1 375/3/1 376/4/1
f 377/1/1 378/2/1 379/3/1 380/4/1
f 381/1/1 382/2/1 383/3/1 384/4/1
f 385/1/1 386/2/1 387/3/1 388/4/1
f 389/1/1 390/2/1 391/3/1 392/4/1
f 393/1/1 394/2/1 395/3/1 396/4/1
f 397/1/1 398/2/1 399/3/1 400/4/1
f 401/1/1 402/2/1 403/3/1 404/4/1
f 405/1/1 406/2/1 407/3/1 408/4/1
f 409/1/1 410/2/1 411/3/1 412/4/1
f 413/1/1 414/2/1 415/3/1 416/4/1
f 417/1/1 418/2/1 419/3/1 420/4/1
f 421/1/1 422/2/1 423/3/1 424/4/1
f 425/1/1 426/2/1 427/3/1 428/4/1
f 429/1/1 430/2/1 431/3/1 432/4/1
f 433/1/1 434/2/1 435/3/1 436/4/1
f 437/1/1 438/2/1 439/3/1 440/4/1
f 441/1/1 442/2/1 443/3/1 444/4/1
f 445/1/1 446/2/1 447/3/1 448/4/1
f 449/1/1 450/2/1 451/3/1 452/4/1
f 453/1/1 454/2/1 455/3/1 456/4/1
f 457/1/1 458/2/1 459/3/1 460/4/1
f 461/1/1 462/2/1 463/3/1 464/4/1
f 465/1/1 466/2/1 467/3/1 468/4/1
f 469/1/1 470/2/1 471/3/1 472/4/1
f 473/1/1 474/2/1 475/3/1 476/4/1
f 477/1/1 478/2/1 479/3/1 480/4/1
f 481/1/1 482/2/1 483/3/1 484/4/1
f 485/1/1 486/2/1 487/3/1 488/4/1
f 489/1/1 490/2/1 491/3/1 492/4/1
f 493/1/1 494/2/1 495/3/1 496/4/1
f 497/1/1 498/2/1 499/3/1 500/4/1
f 501/1/1 502/2/1 503/3/1 504/4/1
f 505/1/1 506/2/1 507/3/1 508/4/1
f 509/1/1 510/2/1 511/3/1 512/4/1
f 513/1/1 514/2/1 515/3/1 516/4/1
f 517/1/1 518/2/1 519/3/1 520/4/1
f 521/1/1 522/2/1 523/3/1 524/4/1
f 525/1/1 526/2/1 527/3/1 528/4/1
f 529/1/1 530/2/1 531/3/1 532/4/1
f 533/1/1 534/2/1 535/3/1 536/4/1
f 537/1/1 538/2/1 539/3/1 540/4/1
f 541/1/1 542/2/1 543/3/1 544/4/1
f 545/1/1 546/2/1 547/3/1 548/4/1
f 549/1/1 550/2/1 551/3/1 552/4/1
f 553/1/1 554/2/1 555/3/1 556/4/1
f 557/1/1 558/2/1 559/3/1 560/4/1
f 561/1/1 562/2/1 563/3/1 564/4/1
f 565/1/1 566/2/1 567/3/1 568/4/1
f 569/1/1 570/2/1 571/3/1 572/4/1
f 573/1/1 574/2/1 575/3/1 576/4/1
f 577/1/1 578/2/1 579/3/1 580/4/1
f 581/1/1 582/2/1 583/3/1 584/4/1
f 585/1/1 586/2/1 587/3/1 588/4/1
f 589/1/1 590/2/1 591/3/1 592/4/1
f 593/1/1 594/2/1 595/3/1 596/4/1
f 597/1/1 598/2/1 599/3/1 600/4/1
f 601/1/1 602/2/1 603/3/1 604/4/1
f 605/1/1 606/2/1 607/3/1 608/4/1
f 609/1/1 610/2/1 611/3/1 612/4/1
f 613/1/1 614/2/1 615/3/1 616/4/1
f 617/1/1 618/2/1 619/3/1 620/4/1
f 621/1/1 622/2/1 623/3/1 624/4/1
f 625/1/1 626/2/1 627/3/1 628/4/1
f 629/1/1 630/2/1 631/3/1 632/4/1
f 633/1/1 634/2/1 635/3/1 636/4/1
f 637/1/1 638/2/1 639/3/1 640/4/1
f 641/1/1 642/2/1 643/3/1 644/4/1
f 645/1/1 646/2/1 647/3/1 648/4/1
f 649/1/1 650/2/1 651/3/1 652/4/1
f 653/1/1 654/2/1 655/3/1 656/4/1
f 657/1/1 658/2/1 659/3/1 660/4/1
f 661/1/1 662/2/1 663/3/1 664/4/1
f 665/1/1 666/2/1 667/3/1 668/4/1
f 669/1/1 670/2/1 671/3/1 672/4/1
f 673/1/1 674/2/1 675/3/1 676/4/1
f 677/1/1 678/2/1 679/3/1 680/4/1
f 681/1/1 682/2/1 683/3/1 684/4/1
f 685/1/1 686/2/1 687/3/1 688/4/1
f 689/1/1 690/2/1 691/3/1 692/4/1
f 693/1/1 694/2/1 695/3/1 696/4/1
f 697/1/1 698/2/1 699/3/1 700/4/1
f 701/1/1 702/2/1 703/3/1 704/4/1
f 705/1/1 706/2/1 707/3/1 708/4/1
f 709/1/1 710/2/1 711/3/1 712/4/1
f 713/1/1 714/2/1 715/3/1 716/4/1
f 717/1/1 718/2/1 719/3/1 720/4/1
f 721/1/1 722/2/1 723/3/1 724/4/1
f 725/1/1 726/2/1 727/3/1 728/4/1
f 729/1/1 730/2/1 731/3/1 732/4/1
f 733/1/1 734/2/1 735/3/1 736/4/1
f 737/1/1 738/2/1 739/3/1 740/4/1
f 741/1/1 742/2/1 743/3/1 744/4/1
f 745/1/1 746/2/1 747/3/1 748/4/1
f 749/1/1 750/2/1 751/3/1 752/4/1
f 753/1/1 754/2/1 755/3/1 756/4/1
f 757/1/1 758/2/1 759/3/1 760/4/1
f 761/1/1 762/2/1 763/3/1 764/4/1
f 765/1/1 766/2/1 767/3/1 768/4/1
f 769/1/1 770/2/1 771/3/1 772/4/1
f 773/1/1 774/2/1 775/3/1 776/4/1
f 777/1/1 778/2/1 779/3/1 780/4/1
f 781/1/1 782/2/1 783/3/1 784/4/1
f 785/1/1 786/2/1 787/3/1 788/4/1
f 789/1/1 790/2/1 791/3/1 792/4/1
f 793/1/1 794/2/1 795/3/1 796/4/1
f 797/1/1 798/2/1 799/3/1 800/4/1
f 801/1/1 802/2/1 803/3/1 804/4/1
f 805/1/1 806/2/1 807/3/1 808/4/1
f 809/1/1 810/2/1 811/3/1 812/4/1
f 813/1/1 814/2/1 815/3/1 816/4/1
f 817/1/1 818/2/1 819/3/1 820/4/1
f 821/1/1 822/2/1 823/3/1 824/4/1
f 825/1/1 826/2/1 827/3/1 828/4/1
f 829/1/1 830/2/1 831/3/1 832/4/1
f 833/1/1 834/2/1 835/3/1 836/4/1
f 837/1/1 838/2/1 839/3/1 840/4/1
f 841/1/1 842/2/1 843/3/1 844/4/1
f 845/1/1 846/2/1 847/3/1 848/4/1
f 849/1/1 850/2/1 851/3/1 852/4/1
f 853/1/1 854/2/1 855/3/1 856/4/1
f 857/1/1 858/2/1 859/3/1 860/4/1
f 861/1/1 862/2/1 863/3/1 864/4/1
f 865/1/1 866/2/1 867/3/1 868/4/1
f 869/1/1 870/2/1 871/3/1 872/4/1
f 873/1/1 874/2/1 875/3/1 876/4/1
f 877/1/1 878/2/1 879/3/1 880/4/1
f 881/1/1 882/2/1 883/3/1 884/4/1

