<?xml version="1.0" encoding="UTF-8" standalone="no"?>
<!-- Created with Inkscape (http://www.inkscape.org/) -->

<svg
   xmlns:dc="http://purl.org/dc/elements/1.1/"
   xmlns:cc="http://creativecommons.org/ns#"
   xmlns:rdf="http://www.w3.org/1999/02/22-rdf-syntax-ns#"
   xmlns:svg="http://www.w3.org/2000/svg"
   xmlns="http://www.w3.org/2000/svg"
   xmlns:xlink="http://www.w3.org/1999/xlink"
   xmlns:sodipodi="http://sodipodi.sourceforge.net/DTD/sodipodi-0.dtd"
   xmlns:inkscape="http://www.inkscape.org/namespaces/inkscape"
   width="1920"
   height="1080"
   viewBox="0 0 1920 1080"
   version="1.1"
   id="svg8"
   inkscape:version="0.92.3 (2405546, 2018-03-11)"
   sodipodi:docname="bekgronging.svg"
   inkscape:export-filename="C:\Users\ASUS\Documents\starring codes\StoryBoardArtConceptUAS\bekgronging.png"
   inkscape:export-xdpi="300"
   inkscape:export-ydpi="300">
  <defs
     id="defs2">
    <linearGradient
       inkscape:collect="always"
       id="linearGradient825">
      <stop
         style="stop-color:#72b537;stop-opacity:1;"
         offset="0"
         id="stop821" />
      <stop
         style="stop-color:#720037;stop-opacity:0.50867051"
         offset="1"
         id="stop823" />
    </linearGradient>
    <linearGradient
       inkscape:collect="always"
       xlink:href="#linearGradient825"
       id="linearGradient827"
       x1="0"
       y1="582.51965"
       x2="1920"
       y2="582.51965"
       gradientUnits="userSpaceOnUse" />
  </defs>
  <sodipodi:namedview
     id="base"
     pagecolor="#ffffff"
     bordercolor="#666666"
     borderopacity="1.0"
     inkscape:pageopacity="0.0"
     inkscape:pageshadow="2"
     inkscape:zoom="0.98994949"
     inkscape:cx="1345.3781"
     inkscape:cy="713.6614"
     inkscape:document-units="px"
     inkscape:current-layer="layer1"
     showgrid="true"
     units="px"
     inkscape:window-width="1920"
     inkscape:window-height="1051"
     inkscape:window-x="-9"
     inkscape:window-y="-9"
     inkscape:window-maximized="1">
    <inkscape:grid
       type="xygrid"
       id="grid815"
       empspacing="4" />
  </sodipodi:namedview>
  <metadata
     id="metadata5">
    <rdf:RDF>
      <cc:Work
         rdf:about="">
        <dc:format>image/svg+xml</dc:format>
        <dc:type
           rdf:resource="http://purl.org/dc/dcmitype/StillImage" />
        <dc:title></dc:title>
        <cc:license
           rdf:resource="http://creativecommons.org/licenses/by-sa/4.0/" />
      </cc:Work>
      <cc:License
         rdf:about="http://creativecommons.org/licenses/by-sa/4.0/">
        <cc:permits
           rdf:resource="http://creativecommons.org/ns#Reproduction" />
        <cc:permits
           rdf:resource="http://creativecommons.org/ns#Distribution" />
        <cc:requires
           rdf:resource="http://creativecommons.org/ns#Notice" />
        <cc:requires
           rdf:resource="http://creativecommons.org/ns#Attribution" />
        <cc:permits
           rdf:resource="http://creativecommons.org/ns#DerivativeWorks" />
        <cc:requires
           rdf:resource="http://creativecommons.org/ns#ShareAlike" />
      </cc:License>
    </rdf:RDF>
  </metadata>
  <g
     inkscape:label="Layer 1"
     inkscape:groupmode="layer"
     id="layer1"
     transform="translate(0,-42.519653)">
    <rect
       style="opacity:1;fill:url(#linearGradient827);fill-opacity:1;stroke:none;stroke-width:1.00157475;stroke-linecap:butt;stroke-linejoin:round;stroke-miterlimit:4;stroke-dasharray:none;stroke-opacity:1"
       id="rect819"
       width="1920"
       height="1080"
       x="0"
       y="42.519653" />
    <path
       style="fill:none;stroke:#a5ff00;stroke-width:5;stroke-linecap:butt;stroke-linejoin:miter;stroke-miterlimit:4;stroke-dasharray:none;stroke-opacity:1"
       d="m 1143.2893,400.51965 35.3554,-35.35534 c 0,0 35.3553,-35.35534 53.033,-17.67767 17.6776,17.67767 -17.6777,53.03301 -17.6777,53.03301 0,0 -35.3553,35.35534 -17.6777,53.03301 17.6777,17.67767 53.033,-17.67767 53.033,-17.67767 l 35.3554,-35.35534"
       id="path829"
       inkscape:connector-curvature="0" />
    <path
       inkscape:connector-curvature="0"
       id="path831"
       d="m 1040,130.51965 35.3554,-35.355337 c 0,0 35.3553,-35.35534 53.033,-17.67767 17.6776,17.67767 -17.6777,53.033007 -17.6777,53.033007 0,0 -35.3553,35.35534 -17.6777,53.03301 17.6777,17.67767 53.033,-17.67767 53.033,-17.67767 l 35.3554,-35.35534"
       style="fill:none;stroke:#a5ff00;stroke-width:5;stroke-linecap:butt;stroke-linejoin:miter;stroke-miterlimit:4;stroke-dasharray:none;stroke-opacity:1" />
    <path
       style="fill:none;stroke:#a5ff00;stroke-width:5;stroke-linecap:butt;stroke-linejoin:miter;stroke-miterlimit:4;stroke-dasharray:none;stroke-opacity:1"
       d="m 1424,338.51965 35.3554,-35.35533 c 0,0 35.3553,-35.35534 53.033,-17.67767 17.6776,17.67767 -17.6777,53.033 -17.6777,53.033 0,0 -35.3553,35.35534 -17.6777,53.03301 17.6777,17.67767 53.033,-17.67767 53.033,-17.67767 l 35.3554,-35.35534"
       id="path833"
       inkscape:connector-curvature="0" />
    <path
       inkscape:connector-curvature="0"
       id="path835"
       d="m 1106.5786,594.51965 35.3554,-35.35533 c 0,0 35.3553,-35.35534 53.033,-17.67767 17.6776,17.67767 -17.6777,53.033 -17.6777,53.033 0,0 -35.3553,35.35534 -17.6777,53.03301 17.6777,17.67767 53.033,-17.67767 53.033,-17.67767 L 1248,594.51965"
       style="fill:none;stroke:#a5ff00;stroke-width:5;stroke-linecap:butt;stroke-linejoin:miter;stroke-miterlimit:4;stroke-dasharray:none;stroke-opacity:1" />
    <path
       style="fill:none;stroke:#a5ff00;stroke-width:5;stroke-linecap:butt;stroke-linejoin:miter;stroke-miterlimit:4;stroke-dasharray:none;stroke-opacity:1"
       d="m 768,354.51965 35.3554,-35.35533 c 0,0 35.3553,-35.35534 53.033,-17.67767 17.6776,17.67767 -17.6777,53.033 -17.6777,53.033 0,0 -35.3553,35.35534 -17.6777,53.03301 17.6777,17.67767 53.033,-17.67767 53.033,-17.67767 l 35.3554,-35.35534"
       id="path837"
       inkscape:connector-curvature="0" />
    <path
       inkscape:connector-curvature="0"
       id="path839"
       d="m 912,834.51965 35.3554,-35.35533 c 0,0 35.3553,-35.35534 53.033,-17.67767 17.6776,17.67767 -17.6777,53.033 -17.6777,53.033 0,0 -35.3553,35.35534 -17.6777,53.03301 17.6777,17.67767 53.033,-17.67767 53.033,-17.67767 l 35.3554,-35.35534"
       style="fill:none;stroke:#a5ff00;stroke-width:5;stroke-linecap:butt;stroke-linejoin:miter;stroke-miterlimit:4;stroke-dasharray:none;stroke-opacity:1" />
    <path
       style="fill:none;stroke:#a5ff00;stroke-width:5;stroke-linecap:butt;stroke-linejoin:miter;stroke-miterlimit:4;stroke-dasharray:none;stroke-opacity:1"
       d="m 1394.5786,578.51965 35.3554,-35.35533 c 0,0 35.3553,-35.35534 53.033,-17.67767 17.6776,17.67767 -17.6777,53.033 -17.6777,53.033 0,0 -35.3553,35.35534 -17.6777,53.03301 17.6777,17.67767 53.033,-17.67767 53.033,-17.67767 L 1536,578.51965"
       id="path841"
       inkscape:connector-curvature="0" />
    <path
       inkscape:connector-curvature="0"
       id="path843"
       d="m 1248,882.51965 35.3554,-35.35533 c 0,0 35.3553,-35.35534 53.033,-17.67767 17.6776,17.67767 -17.6777,53.033 -17.6777,53.033 0,0 -35.3553,35.35534 -17.6777,53.03301 17.6777,17.67767 53.033,-17.67767 53.033,-17.67767 l 35.3554,-35.35534"
       style="fill:none;stroke:#a5ff00;stroke-width:5;stroke-linecap:butt;stroke-linejoin:miter;stroke-miterlimit:4;stroke-dasharray:none;stroke-opacity:1" />
    <path
       style="fill:none;stroke:#a5ff00;stroke-width:5;stroke-linecap:butt;stroke-linejoin:miter;stroke-miterlimit:4;stroke-dasharray:none;stroke-opacity:1"
       d="m 1602.5786,802.51965 35.3554,-35.35533 c 0,0 35.3553,-35.35534 53.033,-17.67767 17.6776,17.67767 -17.6777,53.033 -17.6777,53.033 0,0 -35.3553,35.35534 -17.6777,53.03301 17.6777,17.67767 53.033,-17.67767 53.033,-17.67767 L 1744,802.51965"
       id="path845"
       inkscape:connector-curvature="0" />
    <path
       inkscape:connector-curvature="0"
       id="path847"
       d="m 1698.5786,498.51965 35.3554,-35.35533 c 0,0 35.3553,-35.35534 53.033,-17.67767 17.6776,17.67767 -17.6777,53.033 -17.6777,53.033 0,0 -35.3553,35.35534 -17.6777,53.03301 17.6777,17.67767 53.033,-17.67767 53.033,-17.67767 L 1840,498.51965"
       style="fill:none;stroke:#a5ff00;stroke-width:5;stroke-linecap:butt;stroke-linejoin:miter;stroke-miterlimit:4;stroke-dasharray:none;stroke-opacity:1" />
    <path
       style="fill:none;stroke:#a5ff00;stroke-width:5;stroke-linecap:butt;stroke-linejoin:miter;stroke-miterlimit:4;stroke-dasharray:none;stroke-opacity:1"
       d="m 768,610.51965 35.3554,-35.35533 c 0,0 35.3553,-35.35534 53.033,-17.67767 17.6776,17.67767 -17.6777,53.033 -17.6777,53.033 0,0 -35.3553,35.35534 -17.6777,53.03301 17.6777,17.67767 53.033,-17.67767 53.033,-17.67767 l 35.3554,-35.35534"
       id="path849"
       inkscape:connector-curvature="0" />
    <path
       inkscape:connector-curvature="0"
       id="path851"
       d="m 1730.5786,962.51965 35.3554,-35.35533 c 0,0 35.3553,-35.35534 53.033,-17.67767 17.6776,17.67767 -17.6777,53.033 -17.6777,53.033 0,0 -35.3553,35.35534 -17.6777,53.03305 17.6777,17.6776 53.033,-17.67771 53.033,-17.67771 L 1872,962.51965"
       style="fill:none;stroke:#a5ff00;stroke-width:5;stroke-linecap:butt;stroke-linejoin:miter;stroke-miterlimit:4;stroke-dasharray:none;stroke-opacity:1" />
    <path
       style="fill:none;stroke:#a5ff00;stroke-width:5;stroke-linecap:butt;stroke-linejoin:miter;stroke-miterlimit:4;stroke-dasharray:none;stroke-opacity:1"
       d="m 1696,194.51965 35.3554,-35.35533 c 0,0 35.3553,-35.35534 53.033,-17.67767 17.6776,17.67767 -17.6777,53.033 -17.6777,53.033 0,0 -35.3553,35.35534 -17.6777,53.03305 17.6777,17.6776 53.033,-17.67771 53.033,-17.67771 l 35.3554,-35.35534"
       id="path853"
       inkscape:connector-curvature="0" />
    <path
       inkscape:connector-curvature="0"
       id="path855"
       d="m 1376,130.51965 35.3554,-35.355327 c 0,0 35.3553,-35.35534 53.033,-17.67767 17.6776,17.67767 -17.6777,53.032997 -17.6777,53.032997 0,0 -35.3553,35.35534 -17.6777,53.03305 17.6777,17.6776 53.033,-17.67771 53.033,-17.67771 l 35.3554,-35.35534"
       style="fill:none;stroke:#a5ff00;stroke-width:5;stroke-linecap:butt;stroke-linejoin:miter;stroke-miterlimit:4;stroke-dasharray:none;stroke-opacity:1" />
    <path
       style="fill:none;stroke:#a5ff00;stroke-width:5;stroke-linecap:butt;stroke-linejoin:miter;stroke-miterlimit:4;stroke-dasharray:none;stroke-opacity:1"
       d="m 1456,1010.5197 35.3554,-35.35537 c 0,0 35.3553,-35.35534 53.033,-17.67767 17.6776,17.67767 -17.6777,53.03304 -17.6777,53.03304 0,0 -35.3553,35.3553 -17.6777,53.033 17.6777,17.6776 53.033,-17.6777 53.033,-17.6777 l 35.3554,-35.3553"
       id="path857"
       inkscape:connector-curvature="0" />
  </g>
</svg>
