<?xml version="1.0" encoding="UTF-8" standalone="no"?>
<!-- Created with Inkscape (http://www.inkscape.org/) -->

<svg
   xmlns:dc="http://purl.org/dc/elements/1.1/"
   xmlns:cc="http://creativecommons.org/ns#"
   xmlns:rdf="http://www.w3.org/1999/02/22-rdf-syntax-ns#"
   xmlns:svg="http://www.w3.org/2000/svg"
   xmlns="http://www.w3.org/2000/svg"
   xmlns:sodipodi="http://sodipodi.sourceforge.net/DTD/sodipodi-0.dtd"
   xmlns:inkscape="http://www.inkscape.org/namespaces/inkscape"
   width="1024"
   height="1024"
   viewBox="0 0 270.93333 270.93334"
   version="1.1"
   id="svg8"
   inkscape:version="0.92.3 (2405546, 2018-03-11)"
   sodipodi:docname="Shamrock Ikir AttemptRefference.svg"
   inkscape:export-filename="C:\Users\ASUS\Documents\starring codes\StoryBoardArtConceptUAS\just skeletal.png"
   inkscape:export-xdpi="300"
   inkscape:export-ydpi="300">
  <defs
     id="defs2" />
  <sodipodi:namedview
     id="base"
     pagecolor="#ffffff"
     bordercolor="#666666"
     borderopacity="1.0"
     inkscape:pageopacity="0.0"
     inkscape:pageshadow="2"
     inkscape:zoom="0.70710678"
     inkscape:cx="382.05651"
     inkscape:cy="483.08354"
     inkscape:document-units="px"
     inkscape:current-layer="layer2"
     showgrid="true"
     units="px"
     inkscape:window-width="1920"
     inkscape:window-height="1051"
     inkscape:window-x="-9"
     inkscape:window-y="-9"
     inkscape:window-maximized="1"
     inkscape:snap-bbox="true"
     inkscape:bbox-nodes="true"
     inkscape:snap-bbox-edge-midpoints="true"
     inkscape:snap-bbox-midpoints="true"
     inkscape:object-paths="true"
     inkscape:snap-intersection-paths="true"
     inkscape:bbox-paths="true"
     inkscape:snap-smooth-nodes="true">
    <inkscape:grid
       type="xygrid"
       id="grid815"
       empspacing="4" />
    <inkscape:grid
       type="xygrid"
       id="grid817"
       empspacing="32"
       color="#ff3fff"
       opacity="0.1254902"
       empcolor="#ff3fff"
       empopacity="0.25098039" />
    <inkscape:grid
       type="xygrid"
       id="grid819"
       empspacing="64"
       color="#ff0000"
       opacity="0.1254902"
       empcolor="#ff0000"
       empopacity="0.25098039" />
  </sodipodi:namedview>
  <metadata
     id="metadata5">
    <rdf:RDF>
      <cc:Work
         rdf:about="">
        <dc:format>image/svg+xml</dc:format>
        <dc:type
           rdf:resource="http://purl.org/dc/dcmitype/StillImage" />
        <dc:title />
        <cc:license
           rdf:resource="http://creativecommons.org/licenses/by-sa/4.0/" />
      </cc:Work>
      <cc:License
         rdf:about="http://creativecommons.org/licenses/by-sa/4.0/">
        <cc:permits
           rdf:resource="http://creativecommons.org/ns#Reproduction" />
        <cc:permits
           rdf:resource="http://creativecommons.org/ns#Distribution" />
        <cc:requires
           rdf:resource="http://creativecommons.org/ns#Notice" />
        <cc:requires
           rdf:resource="http://creativecommons.org/ns#Attribution" />
        <cc:permits
           rdf:resource="http://creativecommons.org/ns#DerivativeWorks" />
        <cc:requires
           rdf:resource="http://creativecommons.org/ns#ShareAlike" />
      </cc:License>
    </rdf:RDF>
  </metadata>
  <g
     inkscape:label="Skeletal Rig"
     inkscape:groupmode="layer"
     id="layer1"
     transform="translate(0,-26.06665)"
     style="display:none">
    <circle
       style="opacity:1;fill:#ffffff;fill-opacity:1;stroke:#000000;stroke-width:0.26458332;stroke-linecap:butt;stroke-linejoin:round;stroke-miterlimit:4;stroke-dasharray:none;stroke-opacity:1"
       id="path821"
       cx="67.733337"
       cy="59.933315"
       r="16.933332" />
    <path
       style="fill:none;stroke:#000000;stroke-width:0.26458332px;stroke-linecap:butt;stroke-linejoin:miter;stroke-opacity:1"
       d="m 67.601042,85.333319 0.132292,80.433331"
       id="path823"
       inkscape:connector-curvature="0"
       sodipodi:nodetypes="cc" />
    <path
       style="fill:none;stroke:#000000;stroke-width:0.26458332px;stroke-linecap:butt;stroke-linejoin:miter;stroke-opacity:1"
       d="m 50.799999,59.933316 c 0,0 2.116667,25.4 16.933333,25.4 14.816667,0 16.933334,-25.4 16.933334,-25.4"
       id="path825"
       inkscape:connector-curvature="0" />
    <path
       style="fill:none;stroke:#ff0000;stroke-width:1.32291663;stroke-linecap:butt;stroke-linejoin:miter;stroke-miterlimit:4;stroke-dasharray:none;stroke-opacity:1"
       d="M 33.866666,42.999983 V 85.333316"
       id="path827"
       inkscape:connector-curvature="0" />
    <path
       inkscape:connector-curvature="0"
       id="path831"
       d="M 16.271875,93.799984 V 136.13332"
       style="fill:none;stroke:#ff0000;stroke-width:1.32291663;stroke-linecap:butt;stroke-linejoin:miter;stroke-miterlimit:4;stroke-dasharray:none;stroke-opacity:1" />
    <path
       style="fill:none;stroke:#ff0000;stroke-width:1.32291663;stroke-linecap:butt;stroke-linejoin:miter;stroke-miterlimit:4;stroke-dasharray:none;stroke-opacity:1"
       d="m 17.594792,136.13332 v 42.33333"
       id="path833"
       inkscape:connector-curvature="0" />
    <path
       inkscape:connector-curvature="0"
       id="path835"
       d="m 9.128125,178.46665 v 42.33333"
       style="fill:none;stroke:#ff0000;stroke-width:1.32291663;stroke-linecap:butt;stroke-linejoin:miter;stroke-miterlimit:4;stroke-dasharray:none;stroke-opacity:1" />
    <path
       style="fill:none;stroke:#000000;stroke-width:0.26458332px;stroke-linecap:butt;stroke-linejoin:miter;stroke-opacity:1"
       d="m 50.8,93.799984 c 0,0 4.23333,4.233331 16.933332,4.233332 12.700002,10e-7 16.933335,-4.233332 16.933335,-4.233332"
       id="path837"
       inkscape:connector-curvature="0"
       sodipodi:nodetypes="czc" />
    <path
       style="fill:none;stroke:#000000;stroke-width:0.26458332px;stroke-linecap:butt;stroke-linejoin:miter;stroke-opacity:1"
       d="m 42.333334,157.34712 c 0,0 8.466665,8.33438 25.399998,8.33438 16.933334,0 25.400002,-8.33438 25.400002,-8.33438"
       id="path839"
       inkscape:connector-curvature="0"
       sodipodi:nodetypes="csc" />
    <path
       style="fill:none;stroke:#000000;stroke-width:0.26458332px;stroke-linecap:butt;stroke-linejoin:miter;stroke-opacity:1"
       d="m 42.333335,165.76665 21.166666,16.93333"
       id="path841"
       inkscape:connector-curvature="0" />
    <path
       style="fill:none;stroke:#000000;stroke-width:0.26458332px;stroke-linecap:butt;stroke-linejoin:miter;stroke-opacity:1"
       d="M 93.133334,165.76665 71.966668,182.69998"
       id="path843"
       inkscape:connector-curvature="0" />
    <path
       style="fill:none;stroke:#ff0000;stroke-width:1.32291663;stroke-linecap:butt;stroke-linejoin:miter;stroke-miterlimit:4;stroke-dasharray:none;stroke-opacity:1"
       d="m 7.011459,220.79999 v 42.33333"
       id="path845"
       inkscape:connector-curvature="0" />
    <path
       inkscape:connector-curvature="0"
       id="path847"
       d="m 9.128125,263.13332 v 42.33333"
       style="fill:none;stroke:#ff0000;stroke-width:1.32291663;stroke-linecap:butt;stroke-linejoin:miter;stroke-miterlimit:4;stroke-dasharray:none;stroke-opacity:1" />
    <path
       style="fill:none;stroke:#000000;stroke-width:0.26458332px;stroke-linecap:butt;stroke-linejoin:miter;stroke-opacity:1"
       d="m 50.667709,178.46665 v 63.5 63.5"
       id="path849"
       inkscape:connector-curvature="0" />
    <path
       inkscape:connector-curvature="0"
       id="path851"
       d="m 84.534376,178.46665 v 63.5 63.50001"
       style="fill:none;stroke:#000000;stroke-width:0.26458332px;stroke-linecap:butt;stroke-linejoin:miter;stroke-opacity:1"
       sodipodi:nodetypes="ccc" />
    <circle
       style="opacity:1;fill:#ffffff;fill-opacity:1;stroke:#ff0000;stroke-width:1.32291663;stroke-linecap:butt;stroke-linejoin:round;stroke-miterlimit:4;stroke-dasharray:none;stroke-opacity:1"
       id="path853"
       cx="0.66145825"
       cy="241.96666"
       r="2.1166666" />
    <path
       style="fill:none;stroke:#000000;stroke-width:0.26458332px;stroke-linecap:butt;stroke-linejoin:miter;stroke-opacity:1"
       d="m 27.582812,96.048942 c 0,0 -8.466665,2e-6 -8.466665,4.233338"
       id="path846"
       inkscape:connector-curvature="0"
       sodipodi:nodetypes="cc" />
    <path
       style="fill:none;stroke:#000000;stroke-width:0.26458332px;stroke-linecap:butt;stroke-linejoin:miter;stroke-opacity:1"
       d="m 44.449999,241.96665 c 0,0 2.116669,4.23333 7.408335,4.23333 5.291667,0 7.408333,-4.23333 7.408333,-4.23333"
       id="path852"
       inkscape:connector-curvature="0"
       sodipodi:nodetypes="csc" />
  </g>
  <g
     inkscape:groupmode="layer"
     id="layer2"
     inkscape:label="Skin Rig"
     style="display:inline">
    <path
       sodipodi:nodetypes="zzzcz"
       inkscape:connector-curvature="0"
       id="path856"
       d="m 84.666667,33.866667 c -10e-7,-16.933333 -15.875,-16.933334 -16.933333,-16.933334 -1.058333,0 -16.933334,0 -16.933335,16.933333 -10e-7,16.933333 9.525003,25.400002 16.933335,25.400001 7.408332,2e-6 16.933334,-8.466667 16.933333,-25.4 z"
       style="fill:#000000;fill-opacity:1;stroke:#000000;stroke-width:0.26458332px;stroke-linecap:butt;stroke-linejoin:miter;stroke-opacity:1" />
    <path
       sodipodi:nodetypes="ccccssscccccccccccccccccccsccccczzccczcczccccccczcczccczzcccccscccccccccccccccccccsssccccsc"
       inkscape:connector-curvature="0"
       id="path859"
       d="m 70.908334,58.7375 -10e-7,0.529168 c 0,0 -0.115163,5.606053 5.291667,7.408333 0.128185,0.04273 0.258094,0.08373 0.38945,0.123079 3.122199,0.935256 7.06161,0.935256 8.077216,0.935256 9.525,0 9.525001,8.466664 9.525001,8.466664 l 4.233328,29.63333 3.174995,40.21667 1.05834,7.40833 -1.05834,4.23333 -2.116655,2.11667 -2.11667,0.79375 c 0,0 -1.32292,0.26459 -1.32292,-0.79375 l 1.05834,-0.26458 1.85208,-0.79375 1.587495,-1.5875 0.52917,-3.96875 -0.52917,3.96875 -1.587495,1.5875 -1.85208,0.79375 c 0,0 -1.05834,0 -1.05834,-0.79375 l 1.85209,-0.79375 1.32291,-1.32292 0.52917,-3.43958 -0.26458,-1.85208 -0.26459,4.23333 c 0,0 -0.26458,1.05833 -1.05833,1.05833 -0.79375,0 -0.79375,-1.05833 -0.79375,-1.05833 v -3.175 -5.29167 l -5.291666,-38.1 -7.408332,-28.574996 c -2.116666,3.175 -1.058333,12.7 -10e-7,21.166666 1.058332,8.46667 7.408333,25.4 8.466666,29.63333 1.058334,4.23334 1.058334,6.35 1.058334,6.35 0,6.35 -3.175,78.31667 -3.175,78.31667 l -2.116667,63.5 c 0,0 2.116667,1.05834 2.116667,3.175 0,2.11666 -1.058333,2.11666 -1.058333,2.11666 h -9.525 c 0,0 -1.058332,0 -1.058333,-2.11666 -10e-7,-2.11666 1.058332,-3.175 1.058332,-3.175 L 76.199999,215.9 71.966666,156.63333 H 67.733334 63.5 L 59.266667,215.9 55.033334,279.4 c 0,0 1.058333,1.05834 1.058332,3.175 -10e-7,2.11666 -1.058333,2.11666 -1.058333,2.11666 h -9.525 c 0,0 -1.058333,0 -1.058333,-2.11666 0,-2.11666 2.116667,-3.175 2.116667,-3.175 L 44.45,215.9 c 0,0 -3.175,-71.96667 -3.175,-78.31667 0,0 0,-2.11666 1.058334,-6.35 C 43.391667,127 49.52746,108.87396 50.8,101.6 c 1.27254,-7.273957 2.116667,-17.991666 0,-21.166666 l -7.408333,28.574996 -5.291667,38.1 v 5.29167 3.175 c 0,0 0,1.05833 -0.79375,1.05833 -0.79375,0 -1.058333,-1.05833 -1.058333,-1.05833 l -0.264583,-4.23333 -0.264584,1.85208 0.529167,3.43958 1.322917,1.32292 1.852083,0.79375 c 0,0.79375 -1.058333,0.79375 -1.058333,0.79375 L 36.5125,158.75 l -1.5875,-1.5875 -0.529166,-3.96875 0.529166,3.96875 1.5875,1.5875 1.852084,0.79375 1.058333,0.26458 c 0,1.05834 -1.322917,0.79375 -1.322917,0.79375 l -2.116667,-0.79375 -2.116667,-2.11667 -1.058333,-4.23333 1.058334,-7.40833 3.175,-40.21667 L 41.275,76.2 c 0,0 0,-8.466666 9.525,-8.466666 1.015606,0 4.955017,0 8.077216,-0.935256 0.131356,-0.03935 0.261265,-0.08035 0.38945,-0.123079 5.40683,-1.80228 5.291667,-7.408333 5.291667,-7.408333 l 10e-7,-0.529166 c 0,0 0.79375,0.529167 3.175,0.529167 2.38125,0 3.175,-0.529167 3.175,-0.529167 z"
       style="display:inline;fill:#000000;fill-opacity:1;stroke:#000000;stroke-width:0.26499999;stroke-linecap:butt;stroke-linejoin:round;stroke-miterlimit:4;stroke-dasharray:none;stroke-opacity:1" />
    <g
       id="g917"
       style="fill:#000000;fill-opacity:1">
      <path
         sodipodi:nodetypes="czc"
         inkscape:connector-curvature="0"
         id="path868"
         d="M 50.8,80.433334 C 47.625,84.666667 45.508334,101.6 57.15,101.6 c 11.641667,0 11.641667,-15.874999 8.466667,-21.166666"
         style="fill:#000000;fill-opacity:1;stroke:#000000;stroke-width:0.26458332px;stroke-linecap:butt;stroke-linejoin:miter;stroke-opacity:1" />
      <path
         style="fill:#000000;fill-opacity:1;stroke:#000000;stroke-width:0.26458332px;stroke-linecap:butt;stroke-linejoin:miter;stroke-opacity:1"
         d="M 84.666667,80.433334 C 87.841667,84.666667 89.958333,101.6 78.316667,101.6 66.675,101.6 66.675,85.725001 69.85,80.433334"
         id="path848"
         inkscape:connector-curvature="0"
         sodipodi:nodetypes="czc" />
    </g>
    <g
       id="g858">
      <path
         sodipodi:nodetypes="cscscc"
         inkscape:connector-curvature="0"
         id="path850"
         d="m 59.266666,33.866666 c 0,0 6.35,0 6.35,4.233334 0,4.233333 -6.35,4.233333 -6.35,4.233333 0,0 -6.349999,10e-7 -6.35,-4.233333 0,-1.058334 1.058334,-4.233333 3.175,-4.233334 z"
         style="fill:#82ffff;fill-opacity:1;stroke:#000000;stroke-width:0.26458332px;stroke-linecap:butt;stroke-linejoin:miter;stroke-opacity:1" />
      <ellipse
         ry="4.2333331"
         rx="3.175"
         cy="38.099998"
         cx="59.266666"
         id="path854"
         style="opacity:1;fill:#ff0000;fill-opacity:1;stroke:none;stroke-width:0.26499999;stroke-linecap:butt;stroke-linejoin:round;stroke-miterlimit:4;stroke-dasharray:none;stroke-opacity:1" />
    </g>
    <g
       id="g864"
       transform="matrix(-1,0,0,1,135.46667,7.3436212e-7)">
      <path
         style="fill:#82ffff;fill-opacity:1;stroke:#000000;stroke-width:0.26458332px;stroke-linecap:butt;stroke-linejoin:miter;stroke-opacity:1"
         d="m 59.266666,33.866666 c 0,0 6.35,0 6.35,4.233334 0,4.233333 -6.35,4.233333 -6.35,4.233333 0,0 -6.349999,10e-7 -6.35,-4.233333 0,-1.058334 1.058334,-4.233333 3.175,-4.233334 z"
         id="path860"
         inkscape:connector-curvature="0"
         sodipodi:nodetypes="cscscc" />
      <ellipse
         style="opacity:1;fill:#ff0000;fill-opacity:1;stroke:none;stroke-width:0.26499999;stroke-linecap:butt;stroke-linejoin:round;stroke-miterlimit:4;stroke-dasharray:none;stroke-opacity:1"
         id="ellipse862"
         cx="59.266666"
         cy="38.099998"
         rx="3.175"
         ry="4.2333331" />
    </g>
    <path
       style="fill:#ffd100;fill-opacity:1;stroke:#323232;stroke-width:0.26458332px;stroke-linecap:butt;stroke-linejoin:miter;stroke-opacity:1"
       d="m 63.499999,52.916666 c 0,0 2.116667,-1.058333 4.233333,-1.058333 2.116667,0 4.233334,0 4.233334,0 0,0 0,-2.116667 -2.116667,-2.116667 -2.116667,0 -5.291666,1.058333 -6.35,3.175 z"
       id="path866"
       inkscape:connector-curvature="0" />
    <path
       style="opacity:1;fill:#323232;fill-opacity:0.56470588;stroke:none;stroke-width:0.26499999;stroke-linecap:butt;stroke-linejoin:round;stroke-miterlimit:4;stroke-dasharray:none;stroke-opacity:1"
       id="path871"
       d="M 66.886843,17.103206 C 66.54742,16.782978 66.28208,16.39098 66.038287,15.995337 65.846811,15.645875 65.68392,15.281589 65.512383,14.921705 65.183559,14.258889 64.804628,13.624792 64.420149,12.993352 63.92361,12.167022 63.354193,11.390825 62.78138,10.617002 62.326173,9.9341309 61.711942,9.3983465 61.09954,8.8632489 60.517695,8.4010798 59.950503,7.9174289 59.348787,7.4806968 59.19026,7.3656337 58.421817,6.8452666 58.266718,6.7398598 57.497598,6.2350861 56.726219,5.7278116 55.914088,5.2935986 55.422865,5.0309631 55.272259,4.9730067 54.773742,4.7486757 53.954902,4.4057752 53.124057,4.0827499 52.267196,3.8479986 51.40916,3.6193841 50.520848,3.5536124 49.640526,3.4667203 48.918383,3.4183044 48.205834,3.290825 47.492456,3.1754714 47.18791,3.1140585 46.882637,3.0570836 46.57559,3.0097621 c 0,0 1.122805,-0.7873965 1.122805,-0.7873965 v 0 c 0.300712,0.055329 0.599943,0.1179372 0.899922,0.1770796 0.703511,0.1194671 1.407054,0.2432527 2.119098,0.301151 0.888558,0.090019 1.785676,0.1506588 2.649765,0.3932174 0.853588,0.244099 1.681861,0.5691402 2.489457,0.9372883 0.502166,0.2359607 0.637677,0.2908308 1.134721,0.5617792 0.811715,0.4424823 1.588174,0.9470176 2.361237,1.4527543 0.24284,0.1635893 0.850008,0.5700644 1.091472,0.7427085 0.609513,0.435797 1.190265,0.9110061 1.777788,1.3754319 0.327361,0.2766557 0.666221,0.5493014 0.965431,0.8573238 0.274036,0.2821088 0.50393,0.6037699 0.733996,0.9212673 0.565825,0.7828301 1.141198,1.5594271 1.64578,2.3843611 0.393776,0.63034 0.779981,1.2648 1.127762,1.922057 0.18211,0.351293 0.346959,0.708277 0.523375,1.061997 0.227748,0.382409 0.476991,0.773953 0.838703,1.043248 0,0 -1.170059,0.749176 -1.170059,0.749176 z"
       inkscape:connector-curvature="0" />
    <path
       style="opacity:1;fill:#323232;fill-opacity:0.56470588;stroke:none;stroke-width:0.26499999;stroke-linecap:butt;stroke-linejoin:round;stroke-miterlimit:4;stroke-dasharray:none;stroke-opacity:1"
       id="path873"
       d="m 68.490972,17.595945 c -0.01445,-0.06282 -0.02887,-0.125637 -0.0433,-0.188455 0,0 1.203378,-0.652864 1.203378,-0.652864 v 0 c 0.01646,0.05402 0.03291,0.10804 0.04937,0.16206 0,0 -1.209445,0.679259 -1.209445,0.679259 z"
       inkscape:connector-curvature="0" />
    <path
       style="opacity:1;fill:#323232;fill-opacity:0.56470588;stroke:none;stroke-width:0.26499999;stroke-linecap:butt;stroke-linejoin:round;stroke-miterlimit:4;stroke-dasharray:none;stroke-opacity:1"
       id="path875"
       d="m 68.943214,17.146636 c 0.07308,-0.05904 0.143333,-0.121754 0.219226,-0.177125 0.487881,-0.35595 1.01505,-0.658654 1.534101,-0.965434 1.15084,-0.680191 0.273995,-0.151106 1.41559,-0.846831 0.697899,-0.459067 1.423839,-0.888361 2.060112,-1.433924 0.281585,-0.241443 0.439142,-0.409555 0.699236,-0.670604 0.54592,-0.564063 1.051933,-1.16415 1.603459,-1.722818 0.500557,-0.465583 0.90677,-1.014551 1.327769,-1.5495206 0.524076,-0.6476267 1.06552,-1.2803656 1.569792,-1.9437268 0.281768,-0.3508078 0.507381,-0.7373373 0.737293,-1.1221153 0.244163,-0.333964 0.449855,-0.6921209 0.635399,-1.0612663 0.130276,-0.268379 0.268007,-0.5334582 0.372833,-0.8130698 0.08124,-0.3162644 0.171635,-0.625738 0.300154,-0.9263623 0.11821,-0.2962294 0.27188,-0.5730275 0.442478,-0.8414999 0.139843,-0.2187604 0.301297,-0.4185957 0.506111,-0.5787882 0.526418,-0.016418 0.914879,-0.637122 1.442487,-0.7801007 0.273169,-0.074027 0.57063,-0.09235 0.85058,-0.1257075 0.571167,-0.04108 1.141966,-0.086188 1.713182,-0.1272736 0.445313,-0.053701 0.890352,-0.1059136 1.338012,-0.1349793 0.05372,-0.00277 0.107434,-0.00554 0.161152,-0.00832 0,0 -1.106861,0.8127379 -1.106861,0.8127379 v 0 c -0.05235,0.00258 -0.104706,0.00516 -0.157059,0.00774 -0.441841,0.028568 -0.881168,0.082079 -1.321797,0.1244668 -0.570934,0.042695 -1.142733,0.077065 -1.712183,0.1358669 -0.228361,0.031867 -0.461338,0.058157 -0.685554,0.1141251 -0.478271,0.1193847 -1.179874,0.6189491 0.76235,-0.5228775 -0.223457,0.1325954 -0.381731,0.3168264 -0.529992,0.5282132 -0.169096,0.2670111 -0.346001,0.5281895 -0.458113,0.8267001 -0.136949,0.2930559 -0.233807,0.5963687 -0.297696,0.9137147 -0.09888,0.2883358 -0.232942,0.560895 -0.373544,0.8309742 -0.182915,0.3733657 -0.382276,0.7422462 -0.633749,1.0743742 -0.245417,0.3847828 -0.449905,0.7953616 -0.751401,1.1435615 -0.51576,0.6601661 -1.05918,1.2972311 -1.583668,1.9504154 -0.415084,0.5385197 -0.80998,1.0960278 -1.31104,1.5606568 -0.566507,0.554741 -1.077074,1.16104 -1.627253,1.7316 -0.233884,0.23815 -0.449292,0.46601 -0.700665,0.686748 -0.645342,0.566696 -1.395767,0.996694 -2.107726,1.47084 -1.023522,0.627701 -2.087152,1.199132 -3.055908,1.91061 0,0 -1.277107,0.528995 -1.277107,0.528995 z"
       inkscape:connector-curvature="0" />
    <path
       style="opacity:1;fill:#323232;fill-opacity:0.56470588;stroke:none;stroke-width:0.26499999;stroke-linecap:butt;stroke-linejoin:round;stroke-miterlimit:4;stroke-dasharray:none;stroke-opacity:1"
       id="path877"
       d="m 75.376793,18.277307 c 0.79117,-0.345341 1.584523,-0.685297 2.38011,-1.02059 1.256911,-0.529156 2.535041,-1.006054 3.817199,-1.470197 1.62048,-0.552934 3.263701,-1.034624 4.906912,-1.514385 1.857566,-0.497101 3.758795,-0.814559 5.655032,-1.124078 2.04687,-0.319965 4.112998,-0.489248 6.174317,-0.684974 1.107598,-0.103481 2.214417,-0.218072 3.324947,-0.285705 0.0772,-0.0038 0.15448,-0.0077 0.23172,-0.01148 0,0 -1.09765,0.803867 -1.09765,0.803867 v 0 c -0.0738,0.0019 -0.14753,0.0038 -0.22129,0.0057 -1.074637,0.03937 -2.147065,0.122854 -3.218395,0.213956 -2.058477,0.183147 -4.120044,0.358821 -6.161796,0.686514 -1.901561,0.316824 -3.808381,0.639553 -5.668529,1.153004 -1.646774,0.482518 -3.294803,0.964048 -4.915029,1.531035 -1.287267,0.473953 -2.570845,0.95928 -3.834961,1.492367 -0.824783,0.351669 -1.643504,0.71616 -2.463297,1.078836 0,0 1.09071,-0.853863 1.09071,-0.853863 z"
       inkscape:connector-curvature="0" />
    <path
       style="opacity:1;fill:#323232;fill-opacity:0.56470588;stroke:none;stroke-width:0.26499999;stroke-linecap:butt;stroke-linejoin:round;stroke-miterlimit:4;stroke-dasharray:none;stroke-opacity:1"
       id="path879"
       d="m 80.161259,22.757098 c 0.05463,-0.05386 0.106076,-0.111169 0.163901,-0.161595 0.193683,-0.168902 0.395359,-0.307293 0.606343,-0.454883 0.410856,-0.287407 0.831297,-0.556813 1.256477,-0.822343 0.132067,-0.07761 0.262549,-0.157973 0.3962,-0.232816 0.503979,-0.282219 1.005565,-0.56904 1.516579,-0.83831 0.477015,-0.251356 1.120357,-0.400043 1.642319,-0.522737 0.974802,-0.196817 1.969481,-0.257495 2.958044,-0.343862 0.562465,-0.04914 1.124445,-0.103727 1.68683,-0.153773 1.746353,-0.185239 3.495675,-0.315272 5.250286,-0.384687 2.055595,-0.06283 4.112233,-0.09456 6.168742,-0.07789 0.85381,0.01106 1.70761,0.02193 2.56145,0.03063 0,0 -1.02397,0.740958 -1.02397,0.740958 v 0 c -0.84082,-0.02395 -1.6817,-0.04637 -2.52282,-0.05694 -2.053638,-0.0173 -4.108133,0.0044 -6.160543,0.07979 -1.762638,0.08588 -3.519006,0.236367 -5.275101,0.409596 -1.564931,0.135509 -3.142919,0.227604 -4.682945,0.551218 -0.431676,0.11302 -0.858657,0.229694 -1.273924,0.395263 -0.122131,0.04869 -0.464944,0.238937 -0.361526,0.157746 0.229475,-0.180155 0.502361,-0.297339 0.74523,-0.458984 0.129122,-0.08594 -0.26906,0.1544 -0.40359,0.2316 -0.682106,0.419821 -1.364837,0.848163 -1.978705,1.365043 0,0 -1.269277,0.546979 -1.269277,0.546979 z"
       inkscape:connector-curvature="0" />
    <path
       style="opacity:1;fill:#323232;fill-opacity:0.56470588;stroke:none;stroke-width:0.26499999;stroke-linecap:butt;stroke-linejoin:round;stroke-miterlimit:4;stroke-dasharray:none;stroke-opacity:1"
       id="path881"
       d="m 82.672252,26.799529 c 1.008653,-0.902344 2.43481,-1.319226 3.697716,-1.737439 1.426216,-0.480244 2.890642,-0.83428 4.368565,-1.111929 1.6202,-0.267788 3.268403,-0.241458 4.905063,-0.2507 1.989328,-0.01364 3.973917,0.153524 5.948024,0.384705 0.73789,0.108672 1.48386,0.201481 2.20891,0.382661 0.20802,0.05198 0.46238,0.134855 0.66769,0.199189 0.70281,0.20221 1.35975,0.525346 2.02346,0.825835 0.21583,0.09852 0.42079,0.217365 0.63211,0.324768 0,0 -1.14257,0.748016 -1.14257,0.748016 v 0 c -0.20247,-0.111379 -0.40043,-0.230776 -0.60832,-0.332124 -0.65367,-0.312289 -1.31143,-0.617428 -2.01204,-0.812295 -0.90797,-0.285275 -1.83836,-0.4888 -2.78157,-0.619418 -1.963283,-0.256194 -3.939999,-0.408597 -5.921447,-0.383924 -1.649487,0.01742 -3.308371,0.02143 -4.938998,0.303423 -1.474674,0.276264 -2.936015,0.626265 -4.35365,1.122813 -0.548492,0.187154 -0.732753,0.244373 -1.264391,0.447019 -0.173815,0.06625 -0.347813,0.132365 -0.51856,0.206166 -0.137525,0.05944 -0.529285,0.27812 -0.405757,0.193342 0.288034,-0.197678 0.597075,-0.363133 0.901875,-0.533828 0.04791,-0.02683 -0.08654,0.06763 -0.129805,0.10145 0,0 -1.276305,0.54227 -1.276305,0.54227 z"
       inkscape:connector-curvature="0" />
    <path
       style="opacity:1;fill:#323232;fill-opacity:0.56470588;stroke:none;stroke-width:0.26499999;stroke-linecap:butt;stroke-linejoin:round;stroke-miterlimit:4;stroke-dasharray:none;stroke-opacity:1"
       id="path883"
       d="M 63.979694,17.948264 C 63.443106,17.588828 62.886481,17.261569 62.326982,16.939491 61.82919,16.655588 61.34669,16.342888 60.836309,16.081231 60.582973,15.951353 60.276202,15.817625 60.017982,15.7015 c -1.27028,-0.550128 -2.598613,-0.953069 -3.915714,-1.373869 -1.639184,-0.540039 -3.320386,-0.925537 -5.002596,-1.301692 -1.318586,-0.331176 -2.655909,-0.567944 -3.998481,-0.775329 -0.719924,-0.115112 -1.443877,-0.192409 -2.172063,-0.222398 -0.915667,-0.04564 -1.833655,5.03e-4 -2.749436,-0.02702 -0.23485,-0.0071 -0.469196,-0.02591 -0.703794,-0.03887 -0.70439,-0.0393 -1.407208,-0.101167 -2.110251,-0.158766 0,0 1.043763,-0.744344 1.043763,-0.744344 v 0 c 0.698074,0.06651 1.396391,0.134238 2.097437,0.161376 1.169244,0.04423 2.338908,0.01307 3.508808,0.02428 0.721699,0.0233 1.431806,0.136421 2.14221,0.263637 1.334304,0.226095 2.667608,0.460703 3.979241,0.79872 1.67714,0.391215 3.348214,0.807183 4.99305,1.320379 1.33836,0.413324 2.687603,0.80886 3.98245,1.346606 0.338021,0.148904 0.507224,0.216879 0.831154,0.384284 0.509638,0.263379 0.991891,0.576149 1.488374,0.862604 0.570193,0.32347 1.13933,0.64889 1.709787,0.971669 0,0 -1.162227,0.755495 -1.162227,0.755495 z"
       inkscape:connector-curvature="0" />
    <path
       style="opacity:1;fill:#323232;fill-opacity:0.56470588;stroke:none;stroke-width:0.26499999;stroke-linecap:butt;stroke-linejoin:round;stroke-miterlimit:4;stroke-dasharray:none;stroke-opacity:1"
       id="path885"
       d="m 57.724328,20.302065 c -0.247537,-0.121569 -0.500063,-0.231171 -0.754923,-0.336588 -0.276238,-0.138241 -0.576519,-0.215476 -0.870892,-0.303945 -0.598432,-0.143534 -1.20215,-0.261426 -1.808413,-0.367725 -1.091282,-0.213861 -2.201749,-0.270806 -3.308702,-0.340865 -0.748059,-0.0615 -1.495483,-0.13107 -2.245175,-0.169688 -0.350753,6.88e-4 -0.697267,-0.05234 -1.046213,-0.07978 -0.669949,-0.0272 -1.339479,-0.06269 -2.009412,-0.09167 -1.218597,-0.003 -2.432675,0.124611 -3.642252,0.25969 -0.716269,0.06692 -1.42558,0.186091 -2.131023,0.323971 -0.349215,0.05775 -0.693989,0.139083 -1.033147,0.239266 -0.229556,0.08373 -0.458132,0.163959 -0.682554,0.260712 -0.125082,0.06788 -0.062,0.03624 -0.189143,0.09511 0,0 1.082284,-0.862116 1.082284,-0.862116 v 0 c 0.125103,-0.0609 0.06125,-0.03099 0.19164,-0.0896 0.225774,-0.09403 0.459428,-0.168052 0.691171,-0.245738 0.335002,-0.09149 0.677336,-0.154023 1.019305,-0.213154 0.694536,-0.126217 1.393338,-0.230053 2.0975,-0.285281 1.21653,-0.119443 2.436024,-0.240273 3.659314,-0.249516 0.686888,0.01896 1.373892,0.03782 2.060493,0.06238 0.345515,0.02825 0.689692,0.07076 1.036357,0.08443 0.733124,0.05902 1.463892,0.142965 2.196823,0.204312 1.112903,0.07575 2.228347,0.138876 3.327273,0.343763 0.624625,0.0998 1.252063,0.195433 1.866519,0.347227 0.299855,0.08679 0.599098,0.178049 0.881075,0.314234 0.260075,0.106514 0.51462,0.225436 0.772491,0.337076 0,0 -1.160396,0.7635 -1.160396,0.7635 z"
       inkscape:connector-curvature="0" />
    <path
       style="opacity:1;fill:#323232;fill-opacity:0.56470588;stroke:none;stroke-width:0.26499999;stroke-linecap:butt;stroke-linejoin:round;stroke-miterlimit:4;stroke-dasharray:none;stroke-opacity:1"
       id="path887"
       d="m 54.540858,23.167645 c -0.42935,-0.007 -0.858797,-0.0082 -1.2882,-0.01238 -1.377506,-0.02265 -2.755136,-0.02882 -4.132797,-0.03321 -1.846689,-0.0029 -3.692179,-0.08597 -5.538118,-0.133392 -1.54364,-0.05601 -3.08768,0.02425 -4.622983,0.181939 -0.932846,0.129621 -1.879711,0.213888 -2.795913,0.440218 -0.27532,0.05487 -0.528539,0.155967 -0.779563,0.276434 0,0 1.080892,-0.859093 1.080892,-0.859093 v 0 c 0.24769,-0.10977 0.507251,-0.179088 0.772369,-0.234454 0.907219,-0.185064 1.833695,-0.267173 2.750931,-0.385868 1.529421,-0.140568 3.066373,-0.197783 4.602059,-0.147241 1.841929,0.05189 3.683209,0.157153 5.526403,0.137766 1.408128,-0.0044 2.816225,-0.01091 4.224207,-0.03321 0.440759,-0.0042 0.881563,-0.0054 1.322277,-0.01238 0,0 -1.121564,0.814863 -1.121564,0.814863 z"
       inkscape:connector-curvature="0" />
    <path
       style="opacity:1;fill:#323232;fill-opacity:0.56470588;stroke:none;stroke-width:0.26499999;stroke-linecap:butt;stroke-linejoin:round;stroke-miterlimit:4;stroke-dasharray:none;stroke-opacity:1"
       id="path889"
       d="m 51.838412,27.377757 c -0.282403,-0.0064 -0.564909,-0.0042 -0.847354,-0.003 -0.36308,-0.0011 -0.722342,0.06479 -1.081122,0.11371 -0.296458,0.05309 -0.588113,0.132713 -0.884415,0.18347 -0.610666,0.05873 -1.226106,0.05357 -1.839079,0.05782 -0.679429,0.0024 -1.358829,0.0078 -2.038218,0.01511 -0.311589,0.0031 -0.623213,0.0042 -0.934818,0.004 -0.251653,2.65e-4 -0.503309,0.0011 -0.754962,2.65e-4 -0.345794,-0.0019 -0.691591,-0.0042 -1.037394,-0.0037 -0.309795,-1.72e-4 -0.619583,0.0024 -0.929373,0.0042 -0.231973,-7.93e-4 -0.463944,0.0016 -0.695909,-2.64e-4 -0.35604,0.01045 -0.709354,-0.0185 -1.06348,-0.05016 -0.443505,-0.03728 -0.888849,-0.04234 -1.333616,-0.04894 -0.623573,-0.01074 -1.247209,-0.008 -1.870803,-0.0016 -0.839681,-0.0038 -1.679498,-0.01135 -2.518947,-0.03197 -0.782333,-0.01963 -0.400005,-0.01037 -1.146982,-0.02783 0,0 1.054799,-0.761703 1.054799,-0.761703 v 0 c 0.737237,0.02551 0.358732,0.01389 1.135528,0.0344 0.858004,0.01019 1.715574,-0.0058 2.573538,-0.01064 0.622591,0.0062 1.245172,0.0079 1.867789,0.0057 0.451721,0.0032 0.904007,0.0084 1.35436,0.04724 0.354269,0.03209 0.708123,0.04937 1.064014,0.03457 0.23227,-0.0019 0.46454,5.29e-4 0.696815,-2.65e-4 0.30598,0.0016 0.611954,0.0043 0.91794,0.0042 0.349231,5.29e-4 0.698457,-0.0019 1.047684,-0.0037 0.251216,-5.3e-4 0.502435,1.21e-4 0.753652,7.93e-4 0.307044,2.04e-4 0.614103,0.0021 0.92112,0.0059 0.669817,0.0083 1.339715,0.01304 2.009553,0.0037 0.621493,-0.0105 1.248823,-0.007 1.863802,-0.10709 0.291772,-0.06567 0.585943,-0.120947 0.88088,-0.170342 0.365797,-0.04919 0.732208,-0.112778 1.102585,-0.106595 0.28522,0.0013 0.570497,0.0033 0.855678,-0.003 0,0 -1.123265,0.816099 -1.123265,0.816099 z"
       inkscape:connector-curvature="0" />
    <path
       style="opacity:1;fill:#323232;fill-opacity:0.56470588;stroke:none;stroke-width:0.26499999;stroke-linecap:butt;stroke-linejoin:round;stroke-miterlimit:4;stroke-dasharray:none;stroke-opacity:1"
       id="path891"
       d="m 67.95132,17.641693 c 0.02567,-0.576823 0.02439,-1.153652 -0.0073,-1.730069 -0.02014,-0.397539 -0.05118,-0.792576 -0.114895,-1.185448 -0.04542,-0.254074 -0.109437,-0.503405 -0.172474,-0.753412 -0.05086,-0.19937 -0.06804,-0.404244 -0.07697,-0.609074 -0.03082,-0.255993 -0.07483,-0.510252 -0.112411,-0.765356 -0.03761,-0.376389 -0.08321,-0.751952 -0.120705,-1.128445 -0.03352,-0.345029 -0.04126,-0.691535 -0.04256,-1.037932 7.94e-4,-0.403067 -2.64e-4,-0.8061215 2.65e-4,-1.2091899 0.0021,-0.4444822 0.0028,-0.8889708 0.0027,-1.33346 -0.0076,-0.44851 0.03657,-0.8951769 0.09025,-1.3397547 0.0714,-0.4826998 0.187214,-0.9572588 0.273357,-1.4373379 0.055,-0.3875008 0.122044,-0.7731405 0.161009,-1.1627188 0.01458,-0.3181673 0.07663,-0.6298808 0.135716,-0.941804 0.04239,-0.2492763 0.104275,-0.4940088 0.139525,-0.7445763 0.04534,-0.2251633 0.07809,-0.452675 0.129096,-0.6766609 0.06496,-0.2574984 0.204279,-0.4862724 0.317082,-0.72425302 0.062,-0.20574124 0.183464,-0.37836125 0.294343,-0.55871432 0.08257,-0.16387744 0.201065,-0.29991342 0.321289,-0.43636694 0.491114,-0.45252483 1.110964,-0.73957256 1.697022,-1.04968802 -0.05765,0.059558 0.232664,-0.1245729 0.175318,-0.091931 -0.3692,0.2101521 -0.735486,0.42539887 -1.105059,0.63489661 -0.0271,0.0153609 0.05049,-0.0366722 0.07741,-0.0523532 0.420645,-0.24508274 0.846481,-0.48126941 1.265084,-0.72982531 0.368559,-0.2188398 -0.743289,0.42711269 -1.114933,0.64066904 0.02278,-0.0144521 0.04557,-0.0289043 0.06835,-0.0433565 0,0 1.295159,-0.49898264 1.295159,-0.49898264 v 0 c -0.02357,0.013071 -0.04714,0.026142 -0.0707,0.039213 -4.189005,2.4384408 0.770181,-0.4529822 -0.230957,0.1382141 -0.420195,0.24813548 -0.840081,0.49681084 -1.261808,0.7423324 -0.05669,0.0330034 -0.120293,0.0530913 -0.175972,0.0880934 -0.458859,0.24613117 -0.179658,0.0977773 0.999368,-0.58701614 0.0307,-0.0178342 -0.0617,0.0353182 -0.09103,0.0553371 -0.08491,0.0579581 -0.162346,0.12739737 -0.24978,0.1820047 -0.126987,0.12159168 -0.240054,0.25571249 -0.334373,0.40379726 -0.09609,0.18820754 -0.251018,0.3415243 -0.304876,0.55114814 -0.10377,0.23497077 -0.242184,0.45349683 -0.324813,0.69782316 -0.0539,0.22036548 -0.08603,0.44356868 -0.136044,0.66485888 -0.03243,0.2547073 -0.09138,0.5030363 -0.141872,0.7542184 -0.05929,0.3088826 -0.133607,0.6156535 -0.14229,0.9318017 -0.04136,0.3952754 -0.117137,0.7848518 -0.171157,1.1784256 -0.08079,0.4784537 -0.200707,0.9494176 -0.273007,1.4294556 -0.05424,0.4396238 -0.105095,0.88187 -0.09869,1.3255226 -1.64e-4,0.4437853 2.33e-4,0.8875683 0.0016,1.3313497 -2e-6,0.4021 -0.0026,0.8042211 0.0024,1.2062968 0.0051,0.3429574 0.0089,0.6862504 0.03633,1.0283394 0.03208,0.374231 0.08451,0.746032 0.121087,1.119761 0.03862,0.258554 0.09027,0.514655 0.131373,0.772791 0.0055,0.196618 0.01609,0.393796 0.06024,0.586223 0.05964,0.255205 0.125783,0.508409 0.175043,0.766024 0.05565,0.402746 0.08209,0.80627 0.09154,1.212946 0.02503,0.572523 0.02977,1.145001 0.046,1.717758 0,0 -1.233352,0.628424 -1.233352,0.628424 z"
       inkscape:connector-curvature="0" />
    <path
       style="opacity:1;fill:#323232;fill-opacity:0.56470588;stroke:none;stroke-width:0.26499999;stroke-linecap:butt;stroke-linejoin:round;stroke-miterlimit:4;stroke-dasharray:none;stroke-opacity:1"
       id="path893"
       d="m 83.982054,28.413472 c 0.346863,-0.04587 0.696743,-0.05069 1.046011,-0.05603 0.466593,-7.94e-4 0.931791,-0.01037 1.397281,-0.04048 0.525711,-0.03445 1.052433,-0.0485 1.579118,-0.05625 0.859581,-0.0036 1.719103,0.01013 2.578695,0.01148 0.855377,5.29e-4 1.710703,-0.0094 2.566056,-0.01416 0.442579,-5.29e-4 0.885137,-0.0048 1.327695,-0.0087 0.42259,-0.0226 0.839293,0.03437 1.259068,0.07341 1.993884,0.212625 3.983074,0.459957 5.980012,0.644491 1.22807,0.09097 2.45427,0.206483 3.68293,0.289388 0.38,0.03524 0.75554,0.10007 1.13303,0.153601 0.26661,0.05976 0.53562,0.127291 0.78985,0.227618 0.34449,0.160774 0.66935,0.359074 1.00933,0.528138 0.12155,0.06078 0.23662,0.132564 0.356,0.197337 0,0 -1.15627,0.753046 -1.15627,0.753046 v 0 c -0.11553,-0.06671 -0.22964,-0.135972 -0.34805,-0.197543 -0.32926,-0.179266 -0.65047,-0.374864 -1.00151,-0.510799 -0.25348,-0.08093 -0.50818,-0.162553 -0.77082,-0.208122 -0.36981,-0.05796 -0.73991,-0.112479 -1.11136,-0.159102 -1.18404,-0.133072 -2.36639,-0.282744 -3.55399,-0.382219 -2.026108,-0.19993 -4.048789,-0.449927 -6.081787,-0.567815 -0.433141,-0.02048 -0.865277,-0.04179 -1.298971,-0.03313 -0.434478,-0.004 -0.868953,-0.0084 -1.303454,-0.009 -0.841857,-0.0051 -1.683684,-0.01585 -2.525567,-0.01521 -0.874879,0.0016 -1.749685,0.01069 -2.624455,0.02453 -0.52682,0.0097 -1.053695,0.02442 -1.579229,0.06463 -0.466059,0.03137 -0.932207,0.02622 -1.399077,0.03508 -0.355076,0.01299 -0.711049,0.02775 -1.06199,0.08763 0,0 1.111454,-0.831868 1.111454,-0.831868 z"
       inkscape:connector-curvature="0" />
    <path
       style="opacity:1;fill:#323232;fill-opacity:0.56470588;stroke:none;stroke-width:0.26499999;stroke-linecap:butt;stroke-linejoin:round;stroke-miterlimit:4;stroke-dasharray:none;stroke-opacity:1"
       id="path895"
       d="m 50.528791,33.832318 c -0.352192,0.0051 -0.701342,-0.01913 -1.051605,-0.05241 -0.385352,-0.05577 -0.770975,-0.109752 -1.159034,-0.150379 -0.728908,-0.06041 -1.460182,-0.08168 -2.190438,-0.121187 -1.167743,-0.04709 -2.336038,-0.08262 -3.504289,-0.115789 -0.627499,-0.01765 -1.255147,-0.03059 -1.882902,-0.0323 -0.33545,1.09e-4 -0.670894,-0.0021 -1.006346,-0.0024 -0.466709,0.0046 -0.933344,-0.0047 -1.400029,-0.0079 -0.682416,-0.008 -1.364869,-1.43e-4 -2.047269,0.0054 -0.354455,7.94e-4 -0.698418,-0.0846 -1.046763,-0.136101 -0.256908,-0.0272 -0.509395,-0.09388 -0.751248,-0.183576 -0.195815,-0.06043 -0.395202,-0.108596 -0.582255,-0.19344 0,0 1.150787,-0.767212 1.150787,-0.767212 v 0 c 0.187573,0.07435 0.382939,0.124161 0.574333,0.187452 0.239173,0.07761 0.483907,0.136321 0.734018,0.165706 0.33782,0.0572 0.673777,0.131582 1.018638,0.129783 0.677524,0.0056 1.355103,0.01333 2.032645,0.0052 0.474502,-0.0033 0.948947,-0.01265 1.423477,-0.0092 0.336254,-7.94e-4 0.672621,-0.0052 1.008801,0.0035 0.609592,0.0181 1.218766,0.04683 1.827945,0.07535 1.174023,0.05222 2.348445,0.07278 3.523073,0.104159 0.738312,0.03117 1.477687,0.04909 2.214166,0.112363 0.395075,0.03622 0.788564,0.07774 1.180922,0.134657 0.351547,0.03499 0.703316,0.05157 1.056638,0.03231 0,0 -1.123265,0.816102 -1.123265,0.816102 z"
       inkscape:connector-curvature="0" />
    <path
       style="opacity:1;fill:#323232;fill-opacity:0.56470588;stroke:none;stroke-width:0.26499999;stroke-linecap:butt;stroke-linejoin:round;stroke-miterlimit:4;stroke-dasharray:none;stroke-opacity:1"
       id="path897"
       d="m 50.985618,38.471202 c -0.535549,-0.151942 -1.097375,-0.205925 -1.649746,-0.266605 -0.687811,-0.07657 -1.378686,-0.113273 -2.06837,-0.166616 -0.654616,-0.05316 -1.310939,-0.07906 -1.96747,-0.09087 -0.383567,-0.0045 -0.767152,-0.0066 -1.150745,-0.0067 -0.524827,-0.01376 -1.048348,0.01995 -1.572654,0.03606 -1.222788,0.02156 -2.446189,0.03003 -3.669128,0.01804 -0.760494,-0.01233 -1.529575,-0.01812 -2.276768,-0.17567 -0.297083,-0.08343 -0.595289,-0.154064 -0.896009,-0.222491 -0.327184,-0.0688 -0.651158,-0.153024 -0.971773,-0.247867 -0.401272,-0.133958 -0.8115,-0.241858 -1.224819,-0.331814 -0.249526,-0.03848 -0.492131,-0.108693 -0.736595,-0.169823 0,0 1.126974,-0.776795 1.126974,-0.776795 v 0 c 0.241835,0.06214 0.484325,0.121372 0.729078,0.171095 0.415168,0.0994 0.830064,0.202838 1.23694,0.332582 0.320046,0.08907 0.64126,0.174204 0.966923,0.24053 0.299857,0.06302 0.594019,0.142295 0.888463,0.226938 0.719243,0.156104 1.459259,0.182438 2.19261,0.203282 1.236612,0.01852 2.473716,-0.0024 3.709328,-0.05621 0.5338,-0.0289 1.067255,-0.06247 1.602198,-0.05047 0.382402,6.8e-5 0.765019,-0.0034 1.147135,0.01431 0.650936,0.02752 1.301634,0.06166 1.951424,0.109489 0.693309,0.04738 1.386843,0.09133 2.077889,0.166791 0.56859,0.06897 1.142072,0.127185 1.700168,0.258625 0,0 -1.145053,0.784193 -1.145053,0.784193 z"
       inkscape:connector-curvature="0" />
    <path
       style="opacity:1;fill:#323232;fill-opacity:0.56470588;stroke:none;stroke-width:0.26499999;stroke-linecap:butt;stroke-linejoin:round;stroke-miterlimit:4;stroke-dasharray:none;stroke-opacity:1"
       id="path899"
       d="m 84.289269,31.61429 c 1.035,0.109243 2.074109,0.172233 3.113276,0.225403 1.438121,0.09025 2.875293,0.20056 4.312433,0.307182 0.996825,0.05382 1.982396,0.214833 2.975345,0.308943 1.029282,0.0858 2.062409,0.101095 3.094635,0.111035 0.987711,0.04175 1.975581,0.07097 2.964102,0.08325 0.72532,-0.0058 1.44896,0.04763 2.1713,0.106169 0.6265,0.05094 1.25476,0.06919 1.88302,0.07866 0.51374,0.0052 1.02752,0.007 1.54128,0.004 0.3046,-0.02082 0.61663,0.02447 0.91871,-0.02471 0.0339,-0.0062 0.0678,-0.01236 0.10164,-0.01855 0,0 -1.10705,0.829855 -1.10705,0.829855 v 0 c -0.0348,0.0042 -0.0697,0.0083 -0.10455,0.01249 -0.30231,0.01355 -0.6053,-0.0039 -0.9078,-5.29e-4 -0.5126,-0.0027 -1.02524,7.93e-4 -1.53777,-0.01 -0.62583,-0.01572 -1.25143,-0.04232 -1.87547,-0.09369 -0.71444,-0.05393 -1.42975,-0.104436 -2.146425,-0.114154 -0.989844,-0.02215 -1.979705,-0.04433 -2.96921,-0.0788 -1.029428,-0.0164 -2.058961,-0.05098 -3.085671,-0.130244 -0.990799,-0.08881 -1.974752,-0.237289 -2.966913,-0.313058 -1.427004,-0.123065 -2.854815,-0.2477 -4.285248,-0.321585 -1.069885,-0.04721 -2.139103,-0.117737 -3.209493,-0.148079 0,0 1.119859,-0.813626 1.119859,-0.813626 z"
       inkscape:connector-curvature="0" />
    <path
       style="opacity:1;fill:#323232;fill-opacity:0.56470588;stroke:none;stroke-width:0.26499999;stroke-linecap:butt;stroke-linejoin:round;stroke-miterlimit:4;stroke-dasharray:none;stroke-opacity:1"
       id="path901"
       d="m 84.475618,36.140183 c 0.828151,0.186915 1.675492,0.24388 2.520643,0.296206 0.97459,0.05113 1.950736,0.05279 2.926321,0.06549 1.299697,0.01593 2.599523,0.0097 3.899281,0.009 1.220142,-7.94e-4 2.440273,-0.0058 3.660417,-0.006 0.836444,-0.0032 1.6729,-0.0069 2.509298,-0.01635 1.009392,0.005 2.018692,0.02154 3.028132,0.02826 1.54663,0.0052 3.09304,0.0033 4.6395,0.02896 0.58639,0.01389 1.17119,0.03528 1.75694,0.0016 0.4326,-0.03185 0.85945,-0.106609 1.28839,-0.167707 0,0 -1.08743,0.813679 -1.08743,0.813679 v 0 c -0.43078,0.06064 -0.86098,0.127558 -1.29536,0.157858 -0.57437,0.02663 -1.14721,-0.0092 -1.72091,-0.04134 -1.53125,-0.06809 -3.06329,-0.07502 -4.59588,-0.05577 -1.03535,0.0068 -2.070595,0.02318 -3.105905,0.02824 -0.821465,-0.0096 -1.642985,-0.01315 -2.464498,-0.01619 -1.215644,5.6e-5 -2.43128,-0.0043 -3.646924,-0.0037 -1.308158,7.94e-4 -2.616332,-0.0016 -3.924464,0.0084 -0.972905,0.0024 -1.945047,-0.02596 -2.916473,-0.08144 -0.873816,-0.0515 -1.748353,-0.112221 -2.611837,-0.262274 0,0 1.140759,-0.786852 1.140759,-0.786852 z"
       inkscape:connector-curvature="0" />
    <path
       style="opacity:1;fill:#323232;fill-opacity:0.56470588;stroke:none;stroke-width:0.26499999;stroke-linecap:butt;stroke-linejoin:round;stroke-miterlimit:4;stroke-dasharray:none;stroke-opacity:1"
       id="path903"
       d="m 84.268595,40.686852 c 0.398407,0.0066 0.796845,0.0073 1.195265,0.01365 0.976551,0.01114 1.953186,0.01056 2.929787,0.01254 0.759156,-0.0136 1.517126,-0.01445 2.271911,0.0727 0.496189,0.06015 0.995416,0.09017 1.49383,0.125902 0.774832,0.04797 1.55127,0.06214 2.327415,0.06623 0.503026,0.0024 1.00603,-0.0027 1.509051,-0.0011 0.672782,0.0035 1.345554,0.0073 2.018342,0.0091 0.897223,7.94e-4 1.793637,0.01635 2.689614,-0.03708 0.87082,-0.07573 1.7377,-0.210764 2.59213,-0.394708 0.87555,-0.224477 1.7676,-0.371993 2.65175,-0.557543 0.80856,-0.168233 1.63076,-0.25091 2.45355,-0.308179 0,0 -1.0835,0.797791 -1.0835,0.797791 v 0 c -0.81178,0.04679 -1.6216,0.133207 -2.41749,0.304995 -0.8878,0.186058 -1.78274,0.338241 -2.66161,0.564989 -0.85545,0.174403 -1.72176,0.304152 -2.592576,0.370149 -0.900922,0.0463 -1.802477,0.04043 -2.704386,0.03884 -0.68182,0.0021 -1.363622,0.0063 -2.045435,0.01058 -0.497888,0.0019 -0.995759,-0.0031 -1.493562,-0.01246 -0.77696,-0.01606 -1.554033,-0.03109 -2.330178,-0.0724 -0.505542,-0.02699 -1.012732,-0.04454 -1.513938,-0.120996 -0.735494,-0.09151 -1.475435,-0.100957 -2.216065,-0.09327 -0.988102,0.0021 -1.976239,0.0016 -2.964294,0.01254 -0.410958,0.0063 -0.82193,0.0071 -1.232879,0.01365 0,0 1.123268,-0.816102 1.123268,-0.816102 z"
       inkscape:connector-curvature="0" />
    <path
       style="opacity:1;fill:#323232;fill-opacity:0.56470588;stroke:none;stroke-width:0.26499999;stroke-linecap:butt;stroke-linejoin:round;stroke-miterlimit:4;stroke-dasharray:none;stroke-opacity:1"
       id="path907"
       d="m 50.512011,39.9293 c -1.626304,0.296171 -3.245313,0.632946 -4.870416,0.936879 -0.972566,0.182599 -1.947129,0.35687 -2.916557,0.555889 -0.256254,0.05261 -0.818044,0.167354 -1.09034,0.26819 -0.12451,0.04611 -0.239096,0.115533 -0.358645,0.173299 0.273991,-0.147169 0.529148,-0.336711 0.821978,-0.441505 0.124878,-0.04469 -0.206452,0.166825 -0.304382,0.256276 -0.39901,0.364463 -0.752359,0.783349 -1.106432,1.190344 -0.384421,0.446014 -0.753552,0.905306 -1.165191,1.326817 -0.385016,0.362606 -0.784502,0.709242 -1.177099,1.063503 -0.253045,0.207677 -0.469686,0.443688 -0.657926,0.709967 -0.332587,0.451781 -0.659056,0.907598 -0.970349,1.374344 -0.247811,0.364342 -0.485301,0.735192 -0.720966,1.107392 -0.152908,0.221869 -0.311988,0.439105 -0.462126,0.66294 -0.01834,0.02633 -0.03669,0.05264 -0.05504,0.07896 0,0 -1.270447,0.554935 -1.270447,0.554935 v 0 c 0.01831,-0.02792 0.0366,-0.05584 0.0549,-0.08376 0.166211,-0.213026 0.301196,-0.45086 0.473628,-0.660093 0.247351,-0.374351 0.486529,-0.754155 0.7464,-1.12033 0.304559,-0.460709 0.617715,-0.915591 0.941142,-1.363099 0.183866,-0.282258 0.391527,-0.537089 0.65918,-0.746451 0.393811,-0.353316 0.79181,-0.701881 1.183071,-1.057973 0.424582,-0.417103 0.80164,-0.878703 1.191633,-1.327642 0.26648,-0.30911 0.535485,-0.616159 0.815247,-0.913427 0.08971,-0.09532 0.466651,-0.491508 0.580306,-0.565372 0.478015,-0.310668 0.979445,-0.583732 1.469167,-0.875599 0.120341,-0.04934 0.237104,-0.108516 0.361022,-0.148024 0.263228,-0.08392 0.805712,-0.180699 1.050353,-0.225694 0.953402,-0.175345 1.909337,-0.337127 2.86226,-0.515168 1.681827,-0.320365 3.35407,-0.683689 5.027695,-1.042511 0,0 -1.112068,0.826921 -1.112068,0.826921 z"
       inkscape:connector-curvature="0" />
    <path
       style="opacity:1;fill:#323232;fill-opacity:0.56470588;stroke:none;stroke-width:0.26499999;stroke-linecap:butt;stroke-linejoin:round;stroke-miterlimit:4;stroke-dasharray:none;stroke-opacity:1"
       id="path909"
       d="m 83.905311,42.502526 c 0.64592,0.226568 1.31046,0.395711 1.972405,0.568251 0.705652,0.207973 1.430378,0.339518 2.142594,0.521049 0.218963,0.05581 0.914175,0.251799 1.11983,0.309346 1.173416,0.337875 2.345719,0.678902 3.487505,1.113234 0.745278,0.291812 1.447313,0.679154 2.144715,1.068731 0.572389,0.311955 1.086437,0.71024 1.608764,1.096397 0.444053,0.328808 0.893686,0.652139 1.285193,1.043598 0.345903,0.376113 0.670975,0.773018 0.985284,1.176073 0.306393,0.375941 0.60439,0.755383 0.873265,1.159299 0.231183,0.331358 0.482174,0.647848 0.722324,0.97255 0,0 -1.182553,0.699111 -1.182553,0.699111 v 0 C 98.830372,51.899692 98.585913,51.576705 98.354572,51.244084 98.087896,50.842714 97.78389,50.471771 97.486199,50.093321 97.177663,49.69285 96.855647,49.300489 96.507585,48.933753 96.119719,48.551218 95.686905,48.22151 95.25133,47.89534 94.732889,47.513393 94.211374,47.134166 93.652672,46.812117 92.964557,46.42304 92.271724,46.039373 91.53531,45.747389 c -1.125562,-0.453273 -2.285244,-0.806654 -3.458186,-1.116444 -1.086533,-0.29047 -2.181019,-0.545383 -3.271274,-0.821203 -0.683742,-0.167153 -1.367801,-0.333055 -2.045595,-0.52302 0,0 1.145056,-0.784196 1.145056,-0.784196 z"
       inkscape:connector-curvature="0" />
    <path
       style="opacity:1;fill:#323232;fill-opacity:0.56470588;stroke:none;stroke-width:0.26499999;stroke-linecap:butt;stroke-linejoin:round;stroke-miterlimit:4;stroke-dasharray:none;stroke-opacity:1"
       id="path911"
       d="m 51.206402,41.388514 c 0.333333,-0.191784 1.3384,-0.75804 0.999995,-0.575353 -0.485468,0.262081 -0.955519,0.552101 -1.441307,0.813591 -0.119729,0.06445 -0.249446,0.108326 -0.373753,0.163434 -0.151606,0.06721 -0.303257,0.134339 -0.453972,0.203522 -0.471053,0.216231 -0.528672,0.248568 -0.994296,0.477901 -1.170451,0.64933 0.196342,-0.119549 0.299252,-0.170407 0.108294,-0.05352 -0.20433,0.128992 -0.304208,0.196937 -0.219673,0.149447 -0.412147,0.311346 -0.598305,0.499645 -0.319635,0.418115 -0.559289,0.892553 -0.821862,1.347644 -0.360595,0.596908 -0.746103,1.178068 -1.14392,1.750621 -0.261438,0.423873 -0.528156,0.844431 -0.791785,1.267034 -0.271883,0.505494 -0.496879,1.033875 -0.777345,1.534798 -0.314545,0.514731 -0.596088,1.048345 -0.8982,1.570082 -0.3449,0.589632 -0.728723,1.154827 -1.072901,1.744824 -0.241665,0.408122 -0.473334,0.824746 -0.645258,1.267558 -0.100378,0.296542 -0.229976,0.5812 -0.364207,0.863528 -0.304964,0.732343 -0.603835,1.466901 -0.921866,2.193965 -0.0677,0.151733 -0.135406,0.303467 -0.203108,0.455203 0,0 -1.190604,0.544266 -1.190604,0.544266 v 0 c 0.06965,-0.15203 0.139306,-0.304059 0.208958,-0.456089 0.311951,-0.713729 0.593775,-1.438476 0.861824,-2.169602 0.127143,-0.282874 0.262025,-0.562665 0.368657,-0.854138 0.164876,-0.458878 0.409837,-0.885375 0.663134,-1.300477 0.33856,-0.59126 0.722495,-1.153967 1.065612,-1.742567 0.307784,-0.517332 0.579188,-1.055818 0.896024,-1.568165 0.293915,-0.492154 0.514903,-1.021077 0.768554,-1.53444 0.25758,-0.430983 0.542933,-0.84464 0.796721,-1.278025 0.398733,-0.571995 0.803738,-1.140682 1.156682,-1.742993 0.257966,-0.45884 0.498589,-0.929346 0.78849,-1.368891 0.273238,-0.298214 0.580117,-0.53653 0.928219,-0.744328 1.378294,-0.822764 1.067575,-0.649766 1.946585,-1.116674 0.487666,-0.23777 0.978757,-0.466098 1.470824,-0.694505 0.128233,-0.05952 0.500369,-0.260577 0.383653,-0.180803 -0.09417,0.06436 -3.062509,1.794119 0.471377,-0.268978 0,0 -1.077664,0.871882 -1.077664,0.871882 z"
       inkscape:connector-curvature="0" />
    <path
       style="opacity:1;fill:#323232;fill-opacity:0.56470588;stroke:none;stroke-width:0.26499999;stroke-linecap:butt;stroke-linejoin:round;stroke-miterlimit:4;stroke-dasharray:none;stroke-opacity:1"
       id="path913"
       d="m 83.0802,44.179693 c 0.522219,0.548055 1.139754,0.990172 1.767917,1.407083 0.632627,0.428718 1.313386,0.777307 1.969082,1.167945 0.853779,0.547212 1.709478,1.090412 2.583262,1.605341 0.601371,0.369374 1.235144,0.680688 1.852181,1.021858 0.391607,0.238752 0.781241,0.472641 1.118902,0.784834 0.344778,0.379764 0.72594,0.723257 1.067993,1.105413 0.395126,0.521195 0.783463,1.047303 1.192321,1.557993 0.211151,0.289854 0.459854,0.542682 0.708004,0.79919 0.215027,0.232802 0.360093,0.515689 0.507759,0.793147 0.02148,0.03909 0.04115,0.07923 0.06444,0.117271 0.0191,0.0312 0.105611,0.149252 0.125298,0.182425 0.06006,0.101187 0.101079,0.213061 0.155811,0.317217 0.124563,0.220993 0.212632,0.459102 0.31891,0.688483 0.102804,0.22034 0.188106,0.44895 0.263451,0.680059 0.04729,0.245377 0.175689,0.456464 0.296249,0.671277 0.103407,0.185118 0.05109,0.09063 0.156879,0.283485 0,0 -1.188974,0.68399 -1.188974,0.68399 v 0 c -0.107714,-0.190614 -0.0544,-0.09706 -0.159893,-0.280697 -0.126444,-0.221927 -0.270645,-0.437414 -0.314476,-0.69401 -0.06954,-0.227568 -0.157884,-0.448741 -0.25596,-0.665395 C 95.207882,56.177645 95.1188,55.943494 94.994308,55.725017 94.88471,55.515134 94.781207,55.3047 94.652935,55.105154 94.516719,54.836009 94.37653,54.565621 94.162561,54.34848 93.910723,54.09044 93.689481,53.809934 93.47619,53.519194 93.08058,53.001864 92.69138,52.479106 92.277527,51.976138 91.935585,51.600912 91.573338,51.245378 91.219146,50.881856 90.878873,50.588317 90.496212,50.358502 90.11514,50.121835 89.511472,49.77026 88.892845,49.444206 88.301789,49.070913 87.433556,48.540418 86.571578,47.99962 85.695874,47.481418 c -0.658284,-0.384569 -1.32787,-0.751454 -1.956322,-1.184645 -0.640664,-0.426707 -1.260287,-0.885106 -1.837983,-1.394815 0,0 1.178631,-0.722265 1.178631,-0.722265 z"
       inkscape:connector-curvature="0" />
  </g>
  <g
     inkscape:groupmode="layer"
     id="layer3"
     inkscape:label="Accessorie rig"
     style="display:inline">
    <path
       sodipodi:nodetypes="csszssc"
       inkscape:connector-curvature="0"
       id="path864"
       d="m 76.2,65.616663 c 0,0 15.875001,1.058333 16.933333,2.116666 2.116666,2.116668 13.634987,32.697941 12.699997,33.866671 -4.23333,5.29167 -21.166663,8.46667 -38.099996,8.46667 -16.933334,0 -33.866667,-3.175 -38.100001,-8.46667 -0.934986,-1.16873 10.583334,-31.75 12.7,-33.866668 1.058332,-1.058333 16.933333,-2.116666 16.933333,-2.116666 0,0 10e-7,2.116668 8.466668,2.116668 C 76.2,67.733334 76.2,65.616663 76.2,65.616663 Z"
       style="fill:#ff00ff;fill-opacity:0.39215686;stroke:none;stroke-width:0.26458332px;stroke-linecap:butt;stroke-linejoin:miter;stroke-opacity:1" />
  </g>
</svg>
